<svg width="328" height="335" viewBox="0 0 328 335" fill="none" xmlns="http://www.w3.org/2000/svg">
<g filter="url(#filter0_dddddd_25_4)">
<path d="M148.01 190.072C146.277 191.279 142.667 192.273 138.668 191.67C134.668 191.066 130.282 188.866 128.477 184.18C126.672 179.494 127.45 172.326 130.635 166.47C133.82 160.614 139.412 156.07 147.408 153.622C155.403 151.174 165.809 150.819 174.726 151.067C183.642 151.316 191.074 152.167 196.522 154.616C201.971 157.065 205.439 161.111 207.562 166.222C209.685 171.332 210.464 177.508 210.287 181.944C210.111 186.381 208.978 189.078 206.111 190.463C203.244 191.848 198.646 191.919 194.683 191.599C190.719 191.28 187.394 190.57 186.97 189.327C186.546 188.084 189.022 186.31 190.366 184.5C191.71 182.69 191.922 180.844 190.933 179.815C189.943 178.787 187.748 178.574 185.518 179.248C183.288 179.922 181.025 181.483 179.75 183.933C178.476 186.382 178.193 189.717 178.617 192.628C179.042 195.539 180.174 198.023 181.803 199.159C183.431 200.295 185.554 200.082 187.712 199.372C189.87 198.662 192.065 197.455 194.294 196.816C196.522 196.178 198.788 196.107 198.753 197.667C198.718 199.227 196.382 202.423 192.984 206.293C189.586 210.162 185.129 214.703 181.095 217.437C177.061 220.17 173.452 221.093 170.373 221.341C167.294 221.59 164.747 221.164 161.349 219.567C157.951 217.969 153.706 215.202 149.531 211.333C145.355 207.464 141.25 202.495 140.154 199.691C139.058 196.887 140.969 196.248 143.656 196.638C146.344 197.029 149.814 198.449 152.539 199.159C155.264 199.869 157.246 199.869 158.661 198.733C160.075 197.597 160.925 195.324 160.96 192.628C160.996 189.932 160.217 186.807 158.802 184.288C157.387 181.768 155.334 179.851 153.247 178.999C151.16 178.147 149.037 178.36 148.399 179.71C147.762 181.059 148.61 183.542 149.106 185.494C149.601 187.446 149.743 188.865 148.01 190.072Z" fill="#0A0048"/>
</g>
<g filter="url(#filter1_dddddd_25_4)">
<path d="M168.604 228.235C168.311 228.23 168.017 228.234 167.724 228.246C165.378 228.346 163.035 229.005 160.516 230.159C155.479 232.467 149.744 236.764 143.322 242.577C136.899 248.39 129.789 255.717 121.589 259.859C113.39 264.001 104.101 264.957 94.9122 264.878C85.7236 264.799 76.6329 263.684 73.3711 264.798C70.1092 265.913 72.6766 269.256 80.976 275.627C89.2755 281.998 103.308 291.396 119.216 297.767C122.657 299.145 126.196 300.352 129.782 301.445C130.067 309.576 132.8 316.553 137.888 321.976C144.015 328.507 153.498 332.807 163.971 333.921C174.444 335.036 185.906 332.964 193.512 329.142C201.118 325.319 204.873 319.742 206.552 313.215C207.384 309.981 207.701 306.51 207.479 302.641C209.946 301.961 212.358 301.247 214.65 300.473C227.398 296.172 237.276 290.6 245.478 284.467C253.679 278.333 260.185 271.656 263.45 267.589C266.715 263.521 266.719 262.087 262.275 262.566C257.831 263.045 248.934 265.436 239.845 265.596C230.756 265.755 221.474 263.687 213.371 259.227C205.268 254.767 198.352 247.917 192.029 242.183C185.706 236.45 179.968 231.83 174.933 229.681C172.731 228.741 170.66 228.271 168.604 228.235ZM177.821 257.578C179.369 257.611 181.904 257.682 186.248 263.473C190.591 269.263 195.846 281.3 198.477 290.616C201.109 299.932 201.364 306.559 199.936 312.109C198.509 317.659 195.888 321.532 189.939 324.522C183.989 327.512 173.618 329.456 164.856 328.524C156.093 327.591 148.243 323.984 143.278 318.692C138.315 313.4 135.821 306.078 136.626 296.711C137.431 287.344 141.823 275.715 146.227 268.47C150.632 261.226 154.809 258.685 157.022 258.15C158.949 257.685 161.466 258.457 165.95 258.755C162.366 271.727 153.856 308.621 169.865 318.515C163.634 303.508 170.161 270.525 172.891 258.435C173.654 258.293 174.349 258.143 174.896 258.02C176.385 257.685 177.05 257.561 177.821 257.578Z" fill="#0A0048"/>
</g>
<g filter="url(#filter2_dddddd_25_4)">
<path d="M74.3341 0.00088506C54.8738 0.00014506 35.5331 8.14114 21.7722 22.1245C8.01118 36.1079 0.000620046 55.7645 4.58664e-08 75.5406C-0.000699954 95.3176 8.01104 114.968 21.7722 128.952C35.5333 142.937 54.873 151.081 74.3341 151.08C82.3244 151.08 90.287 149.685 97.8591 147.099C95.8546 147.305 93.8416 147.417 91.8266 147.437C83.256 147.437 74.7693 145.749 66.8511 142.47C58.9329 139.19 51.7382 134.383 45.6779 128.322C39.6176 122.262 34.8103 115.067 31.5307 107.149C28.251 99.231 26.5631 90.7443 26.5634 82.1737C26.5637 73.6035 28.252 65.1173 31.532 57.1996C34.8119 49.2819 39.6192 42.0877 45.6795 36.0279C51.7397 29.968 58.9342 25.1612 66.8521 21.8818C74.7701 18.6024 83.2564 16.9147 91.8266 16.915C108.766 16.9405 125.032 23.5514 137.186 35.3506C134.25 30.5714 130.814 26.1152 126.892 22.129C113.132 8.14573 93.7936 0.00151506 74.3341 0.00088506ZM91.8266 28.7887C86.8598 28.7886 81.9063 29.5258 77.1368 30.9063C83.2515 32.5931 88.6447 36.2378 92.4902 41.2822C96.3358 46.3266 98.4217 52.4925 98.4286 58.8356C98.4288 66.5277 95.3736 73.905 89.9348 79.3445C84.4961 84.7841 77.1193 87.8405 69.4272 87.8414C62.881 87.8336 56.5301 85.6116 51.4069 81.5368C46.2836 77.462 42.6895 71.7739 41.2087 65.3975C39.4069 70.7997 38.4374 76.477 38.4372 82.1737C38.4367 96.1508 44.1912 110.042 54.0745 119.926C63.9578 129.809 77.8495 135.564 91.8266 135.563C105.803 135.563 119.692 129.809 129.574 119.926C138.074 111.425 143.507 99.9586 144.865 88.0238C142.805 89.2729 140.444 89.9359 138.036 89.9412C136.299 89.9417 134.579 89.6 132.975 88.9358C131.37 88.2715 129.912 87.2977 128.684 86.0699C127.456 84.8422 126.482 83.3845 125.817 81.7801C125.152 80.1758 124.81 78.4562 124.81 76.7195C124.809 74.9825 125.151 73.2625 125.816 71.6576C126.48 70.0527 127.454 68.5945 128.682 67.3663C129.911 66.138 131.369 65.1638 132.974 64.4993C134.579 63.8347 136.299 63.493 138.036 63.4934C139.382 63.4948 140.72 63.7019 142.004 64.1073C139.344 56.7503 135.107 49.9591 129.574 44.4261C119.692 34.5436 105.802 28.7892 91.8266 28.7887Z" fill="#0A0048"/>
</g>
<g filter="url(#filter3_dddddd_25_4)">
<path d="M253.04 4.909e-08C233.58 0.000640049 214.242 8.14485 200.482 22.1281C196.559 26.1143 193.124 30.5705 190.188 35.3498C202.342 23.5506 218.608 16.9396 235.547 16.9142C244.117 16.9138 252.604 18.6016 260.521 21.881C268.439 25.1603 275.634 29.9672 281.694 36.027C287.754 42.0868 292.562 49.281 295.842 57.1987C299.122 65.1164 300.81 73.6026 300.81 82.1728C300.81 90.7434 299.123 99.2301 295.843 107.148C292.563 115.067 287.756 122.261 281.696 128.322C275.635 134.382 268.441 139.189 260.523 142.469C252.604 145.748 244.118 147.436 235.547 147.436C233.532 147.416 231.519 147.304 229.515 147.098C237.087 149.684 245.049 151.079 253.04 151.079C272.501 151.08 291.84 142.936 305.602 128.951C319.363 114.967 327.374 95.3167 327.374 75.5398C327.373 55.7636 319.362 36.107 305.602 22.1236C291.841 8.14026 272.5 -0.000729951 253.04 4.909e-08ZM233.389 28.7878C228.423 28.7877 223.469 29.525 218.7 30.9055C224.814 32.5922 230.207 36.2369 234.053 41.2813C237.899 46.3257 239.985 52.4917 239.991 58.8347C239.992 66.5269 236.936 73.9041 231.498 79.3437C226.059 84.7832 218.682 87.8396 210.99 87.8405C204.444 87.8327 198.093 85.6108 192.97 81.5359C187.846 77.4611 184.252 71.7731 182.772 65.3966C180.97 70.7988 180 76.4761 180 82.1728C179.999 96.1499 185.754 110.042 195.637 119.925C205.521 129.808 219.412 135.563 233.389 135.562C247.366 135.562 261.254 129.808 271.137 119.925C279.637 111.424 285.07 99.9577 286.427 88.0229C284.368 89.2721 282.007 89.9351 279.599 89.9404C277.862 89.9408 276.142 89.5991 274.538 88.9349C272.933 88.2707 271.475 87.2968 270.247 86.0691C269.019 84.8413 268.044 83.3836 267.38 81.7792C266.715 80.1749 266.373 78.4553 266.372 76.7187C266.372 74.9817 266.714 73.2616 267.378 71.6567C268.043 70.0518 269.017 68.5936 270.245 67.3654C271.474 66.1371 272.932 65.1629 274.537 64.4984C276.141 63.8339 277.862 63.4921 279.599 63.4926C280.945 63.494 282.283 63.701 283.567 64.1065C280.907 56.7494 276.67 49.9582 271.137 44.4252C261.255 34.5428 247.365 28.7883 233.389 28.7878Z" fill="#0A0048"/>
</g>
<defs>
<filter id="filter0_dddddd_25_4" x="127.523" y="151" width="82.7871" height="70.4073" filterUnits="userSpaceOnUse" color-interpolation-filters="sRGB">
<feFlood flood-opacity="0" result="BackgroundImageFix"/>
<feColorMatrix in="SourceAlpha" type="matrix" values="0 0 0 0 0 0 0 0 0 0 0 0 0 0 0 0 0 0 127 0" result="hardAlpha"/>
<feOffset/>
<feColorMatrix type="matrix" values="0 0 0 0 0.0392157 0 0 0 0 0 0 0 0 0 0.282353 0 0 0 1 0"/>
<feBlend mode="normal" in2="BackgroundImageFix" result="effect1_dropShadow_25_4"/>
<feColorMatrix in="SourceAlpha" type="matrix" values="0 0 0 0 0 0 0 0 0 0 0 0 0 0 0 0 0 0 127 0" result="hardAlpha"/>
<feOffset/>
<feColorMatrix type="matrix" values="0 0 0 0 0.0392157 0 0 0 0 0 0 0 0 0 0.282353 0 0 0 1 0"/>
<feBlend mode="normal" in2="effect1_dropShadow_25_4" result="effect2_dropShadow_25_4"/>
<feColorMatrix in="SourceAlpha" type="matrix" values="0 0 0 0 0 0 0 0 0 0 0 0 0 0 0 0 0 0 127 0" result="hardAlpha"/>
<feOffset/>
<feColorMatrix type="matrix" values="0 0 0 0 0.0392157 0 0 0 0 0 0 0 0 0 0.282353 0 0 0 1 0"/>
<feBlend mode="normal" in2="effect2_dropShadow_25_4" result="effect3_dropShadow_25_4"/>
<feColorMatrix in="SourceAlpha" type="matrix" values="0 0 0 0 0 0 0 0 0 0 0 0 0 0 0 0 0 0 127 0" result="hardAlpha"/>
<feOffset/>
<feColorMatrix type="matrix" values="0 0 0 0 0.0392157 0 0 0 0 0 0 0 0 0 0.282353 0 0 0 1 0"/>
<feBlend mode="normal" in2="effect3_dropShadow_25_4" result="effect4_dropShadow_25_4"/>
<feColorMatrix in="SourceAlpha" type="matrix" values="0 0 0 0 0 0 0 0 0 0 0 0 0 0 0 0 0 0 127 0" result="hardAlpha"/>
<feOffset/>
<feColorMatrix type="matrix" values="0 0 0 0 0.0392157 0 0 0 0 0 0 0 0 0 0.282353 0 0 0 1 0"/>
<feBlend mode="normal" in2="effect4_dropShadow_25_4" result="effect5_dropShadow_25_4"/>
<feColorMatrix in="SourceAlpha" type="matrix" values="0 0 0 0 0 0 0 0 0 0 0 0 0 0 0 0 0 0 127 0" result="hardAlpha"/>
<feOffset/>
<feColorMatrix type="matrix" values="0 0 0 0 0.0392157 0 0 0 0 0 0 0 0 0 0.282353 0 0 0 1 0"/>
<feBlend mode="normal" in2="effect5_dropShadow_25_4" result="effect6_dropShadow_25_4"/>
<feBlend mode="normal" in="SourceGraphic" in2="effect6_dropShadow_25_4" result="shape"/>
</filter>
<filter id="filter1_dddddd_25_4" x="72" y="228.233" width="193.77" height="105.989" filterUnits="userSpaceOnUse" color-interpolation-filters="sRGB">
<feFlood flood-opacity="0" result="BackgroundImageFix"/>
<feColorMatrix in="SourceAlpha" type="matrix" values="0 0 0 0 0 0 0 0 0 0 0 0 0 0 0 0 0 0 127 0" result="hardAlpha"/>
<feOffset/>
<feColorMatrix type="matrix" values="0 0 0 0 0.0392157 0 0 0 0 0 0 0 0 0 0.282353 0 0 0 1 0"/>
<feBlend mode="normal" in2="BackgroundImageFix" result="effect1_dropShadow_25_4"/>
<feColorMatrix in="SourceAlpha" type="matrix" values="0 0 0 0 0 0 0 0 0 0 0 0 0 0 0 0 0 0 127 0" result="hardAlpha"/>
<feOffset/>
<feColorMatrix type="matrix" values="0 0 0 0 0.0392157 0 0 0 0 0 0 0 0 0 0.282353 0 0 0 1 0"/>
<feBlend mode="normal" in2="effect1_dropShadow_25_4" result="effect2_dropShadow_25_4"/>
<feColorMatrix in="SourceAlpha" type="matrix" values="0 0 0 0 0 0 0 0 0 0 0 0 0 0 0 0 0 0 127 0" result="hardAlpha"/>
<feOffset/>
<feColorMatrix type="matrix" values="0 0 0 0 0.0392157 0 0 0 0 0 0 0 0 0 0.282353 0 0 0 1 0"/>
<feBlend mode="normal" in2="effect2_dropShadow_25_4" result="effect3_dropShadow_25_4"/>
<feColorMatrix in="SourceAlpha" type="matrix" values="0 0 0 0 0 0 0 0 0 0 0 0 0 0 0 0 0 0 127 0" result="hardAlpha"/>
<feOffset/>
<feColorMatrix type="matrix" values="0 0 0 0 0.0392157 0 0 0 0 0 0 0 0 0 0.282353 0 0 0 1 0"/>
<feBlend mode="normal" in2="effect3_dropShadow_25_4" result="effect4_dropShadow_25_4"/>
<feColorMatrix in="SourceAlpha" type="matrix" values="0 0 0 0 0 0 0 0 0 0 0 0 0 0 0 0 0 0 127 0" result="hardAlpha"/>
<feOffset/>
<feColorMatrix type="matrix" values="0 0 0 0 0.0392157 0 0 0 0 0 0 0 0 0 0.282353 0 0 0 1 0"/>
<feBlend mode="normal" in2="effect4_dropShadow_25_4" result="effect5_dropShadow_25_4"/>
<feColorMatrix in="SourceAlpha" type="matrix" values="0 0 0 0 0 0 0 0 0 0 0 0 0 0 0 0 0 0 127 0" result="hardAlpha"/>
<feOffset/>
<feColorMatrix type="matrix" values="0 0 0 0 0.0392157 0 0 0 0 0 0 0 0 0 0.282353 0 0 0 1 0"/>
<feBlend mode="normal" in2="effect5_dropShadow_25_4" result="effect6_dropShadow_25_4"/>
<feBlend mode="normal" in="SourceGraphic" in2="effect6_dropShadow_25_4" result="shape"/>
</filter>
<filter id="filter2_dddddd_25_4" x="0" y="0.00088501" width="144.865" height="151.079" filterUnits="userSpaceOnUse" color-interpolation-filters="sRGB">
<feFlood flood-opacity="0" result="BackgroundImageFix"/>
<feColorMatrix in="SourceAlpha" type="matrix" values="0 0 0 0 0 0 0 0 0 0 0 0 0 0 0 0 0 0 127 0" result="hardAlpha"/>
<feOffset/>
<feColorMatrix type="matrix" values="0 0 0 0 0.0392157 0 0 0 0 0 0 0 0 0 0.282353 0 0 0 1 0"/>
<feBlend mode="normal" in2="BackgroundImageFix" result="effect1_dropShadow_25_4"/>
<feColorMatrix in="SourceAlpha" type="matrix" values="0 0 0 0 0 0 0 0 0 0 0 0 0 0 0 0 0 0 127 0" result="hardAlpha"/>
<feOffset/>
<feColorMatrix type="matrix" values="0 0 0 0 0.0392157 0 0 0 0 0 0 0 0 0 0.282353 0 0 0 1 0"/>
<feBlend mode="normal" in2="effect1_dropShadow_25_4" result="effect2_dropShadow_25_4"/>
<feColorMatrix in="SourceAlpha" type="matrix" values="0 0 0 0 0 0 0 0 0 0 0 0 0 0 0 0 0 0 127 0" result="hardAlpha"/>
<feOffset/>
<feColorMatrix type="matrix" values="0 0 0 0 0.0392157 0 0 0 0 0 0 0 0 0 0.282353 0 0 0 1 0"/>
<feBlend mode="normal" in2="effect2_dropShadow_25_4" result="effect3_dropShadow_25_4"/>
<feColorMatrix in="SourceAlpha" type="matrix" values="0 0 0 0 0 0 0 0 0 0 0 0 0 0 0 0 0 0 127 0" result="hardAlpha"/>
<feOffset/>
<feColorMatrix type="matrix" values="0 0 0 0 0.0392157 0 0 0 0 0 0 0 0 0 0.282353 0 0 0 1 0"/>
<feBlend mode="normal" in2="effect3_dropShadow_25_4" result="effect4_dropShadow_25_4"/>
<feColorMatrix in="SourceAlpha" type="matrix" values="0 0 0 0 0 0 0 0 0 0 0 0 0 0 0 0 0 0 127 0" result="hardAlpha"/>
<feOffset/>
<feColorMatrix type="matrix" values="0 0 0 0 0.0392157 0 0 0 0 0 0 0 0 0 0.282353 0 0 0 1 0"/>
<feBlend mode="normal" in2="effect4_dropShadow_25_4" result="effect5_dropShadow_25_4"/>
<feColorMatrix in="SourceAlpha" type="matrix" values="0 0 0 0 0 0 0 0 0 0 0 0 0 0 0 0 0 0 127 0" result="hardAlpha"/>
<feOffset/>
<feColorMatrix type="matrix" values="0 0 0 0 0.0392157 0 0 0 0 0 0 0 0 0 0.282353 0 0 0 1 0"/>
<feBlend mode="normal" in2="effect5_dropShadow_25_4" result="effect6_dropShadow_25_4"/>
<feBlend mode="normal" in="SourceGraphic" in2="effect6_dropShadow_25_4" result="shape"/>
</filter>
<filter id="filter3_dddddd_25_4" x="180" y="0" width="147.373" height="151.08" filterUnits="userSpaceOnUse" color-interpolation-filters="sRGB">
<feFlood flood-opacity="0" result="BackgroundImageFix"/>
<feColorMatrix in="SourceAlpha" type="matrix" values="0 0 0 0 0 0 0 0 0 0 0 0 0 0 0 0 0 0 127 0" result="hardAlpha"/>
<feOffset/>
<feColorMatrix type="matrix" values="0 0 0 0 0.0392157 0 0 0 0 0 0 0 0 0 0.282353 0 0 0 1 0"/>
<feBlend mode="normal" in2="BackgroundImageFix" result="effect1_dropShadow_25_4"/>
<feColorMatrix in="SourceAlpha" type="matrix" values="0 0 0 0 0 0 0 0 0 0 0 0 0 0 0 0 0 0 127 0" result="hardAlpha"/>
<feOffset/>
<feColorMatrix type="matrix" values="0 0 0 0 0.0392157 0 0 0 0 0 0 0 0 0 0.282353 0 0 0 1 0"/>
<feBlend mode="normal" in2="effect1_dropShadow_25_4" result="effect2_dropShadow_25_4"/>
<feColorMatrix in="SourceAlpha" type="matrix" values="0 0 0 0 0 0 0 0 0 0 0 0 0 0 0 0 0 0 127 0" result="hardAlpha"/>
<feOffset/>
<feColorMatrix type="matrix" values="0 0 0 0 0.0392157 0 0 0 0 0 0 0 0 0 0.282353 0 0 0 1 0"/>
<feBlend mode="normal" in2="effect2_dropShadow_25_4" result="effect3_dropShadow_25_4"/>
<feColorMatrix in="SourceAlpha" type="matrix" values="0 0 0 0 0 0 0 0 0 0 0 0 0 0 0 0 0 0 127 0" result="hardAlpha"/>
<feOffset/>
<feColorMatrix type="matrix" values="0 0 0 0 0.0392157 0 0 0 0 0 0 0 0 0 0.282353 0 0 0 1 0"/>
<feBlend mode="normal" in2="effect3_dropShadow_25_4" result="effect4_dropShadow_25_4"/>
<feColorMatrix in="SourceAlpha" type="matrix" values="0 0 0 0 0 0 0 0 0 0 0 0 0 0 0 0 0 0 127 0" result="hardAlpha"/>
<feOffset/>
<feColorMatrix type="matrix" values="0 0 0 0 0.0392157 0 0 0 0 0 0 0 0 0 0.282353 0 0 0 1 0"/>
<feBlend mode="normal" in2="effect4_dropShadow_25_4" result="effect5_dropShadow_25_4"/>
<feColorMatrix in="SourceAlpha" type="matrix" values="0 0 0 0 0 0 0 0 0 0 0 0 0 0 0 0 0 0 127 0" result="hardAlpha"/>
<feOffset/>
<feColorMatrix type="matrix" values="0 0 0 0 0.0392157 0 0 0 0 0 0 0 0 0 0.282353 0 0 0 1 0"/>
<feBlend mode="normal" in2="effect5_dropShadow_25_4" result="effect6_dropShadow_25_4"/>
<feBlend mode="normal" in="SourceGraphic" in2="effect6_dropShadow_25_4" result="shape"/>
</filter>
</defs>
</svg>
