<svg width="328" height="396" viewBox="0 0 328 396" fill="none" xmlns="http://www.w3.org/2000/svg">
<path d="M136.481 203.179C134.167 204.791 129.347 206.118 124.005 205.312C118.664 204.506 112.806 201.569 110.396 195.311C107.986 189.053 109.026 179.479 113.279 171.659C117.532 163.839 124.999 157.771 135.677 154.502C146.355 151.232 160.251 150.758 172.159 151.09C184.067 151.421 193.991 152.559 201.268 155.829C208.544 159.099 213.175 164.503 216.011 171.328C218.846 178.153 219.886 186.4 219.65 192.325C219.414 198.249 217.902 201.851 214.073 203.701C210.244 205.55 204.104 205.645 198.811 205.218C193.517 204.792 189.077 203.844 188.51 202.184C187.944 200.524 191.251 198.155 193.046 195.738C194.841 193.321 195.124 190.855 193.803 189.481C192.481 188.108 189.549 187.823 186.572 188.724C183.594 189.624 180.571 191.709 178.869 194.98C177.167 198.252 176.789 202.704 177.356 206.592C177.924 210.48 179.435 213.797 181.61 215.314C183.785 216.83 186.62 216.546 189.502 215.598C192.383 214.65 195.315 213.038 198.291 212.185C201.267 211.333 204.293 211.238 204.247 213.321C204.2 215.405 201.08 219.673 196.542 224.841C192.004 230.008 186.053 236.073 180.665 239.723C175.278 243.373 170.459 244.606 166.347 244.938C162.235 245.27 158.833 244.701 154.296 242.567C149.758 240.434 144.089 236.738 138.512 231.571C132.936 226.404 127.455 219.769 125.991 216.025C124.527 212.28 127.079 211.427 130.668 211.948C134.257 212.469 138.891 214.366 142.53 215.314C146.169 216.262 148.816 216.262 150.705 214.745C152.595 213.228 153.729 210.193 153.776 206.593C153.824 202.992 152.783 198.818 150.894 195.454C149.004 192.09 146.262 189.529 143.475 188.392C140.688 187.254 137.853 187.539 137.001 189.34C136.15 191.142 137.284 194.458 137.945 197.065C138.607 199.672 138.796 201.567 136.481 203.179Z" fill="black"/>
<path d="M164.01 254.142C163.618 254.135 163.226 254.14 162.835 254.157C159.701 254.291 156.572 255.171 153.209 256.712C146.482 259.794 138.823 265.532 130.246 273.295C121.67 281.058 112.174 290.843 101.224 296.374C90.2736 301.906 77.869 303.183 65.5981 303.077C53.3272 302.971 41.187 301.482 36.831 302.971C32.4749 304.459 35.9036 308.924 46.987 317.432C58.0705 325.94 76.8099 338.491 98.0544 346.999C102.649 348.84 107.377 350.451 112.165 351.911C112.545 362.77 116.196 372.087 122.99 379.329C131.172 388.051 143.836 393.793 157.823 395.281C171.809 396.77 187.116 394.003 197.273 388.898C207.43 383.793 212.446 376.346 214.687 367.629C215.798 363.31 216.222 358.674 215.925 353.507C219.22 352.599 222.44 351.646 225.502 350.613C242.526 344.869 255.717 337.427 266.67 329.237C277.624 321.046 286.312 312.128 290.672 306.697C295.032 301.266 295.037 299.35 289.103 299.989C283.168 300.629 271.286 303.822 259.148 304.036C247.01 304.249 234.614 301.486 223.794 295.531C212.973 289.575 203.736 280.426 195.292 272.77C186.849 265.113 179.186 258.943 172.462 256.074C169.521 254.818 166.755 254.19 164.01 254.142ZM176.318 293.328C178.386 293.373 181.772 293.467 187.573 301.201C193.373 308.934 200.39 325.008 203.904 337.449C207.418 349.89 207.758 358.74 205.853 366.151C203.946 373.564 200.446 378.736 192.501 382.729C184.556 386.722 170.706 389.318 159.004 388.073C147.302 386.828 136.818 382.01 130.189 374.943C123.56 367.877 120.23 358.098 121.305 345.589C122.38 333.079 128.245 317.549 134.127 307.875C140.009 298.2 145.587 294.806 148.543 294.093C151.116 293.471 154.477 294.502 160.465 294.9C155.679 312.224 144.314 361.494 165.693 374.707C157.373 354.666 166.089 310.618 169.735 294.473C170.753 294.284 171.682 294.083 172.412 293.919C174.401 293.472 175.289 293.306 176.318 293.328Z" fill="black"/>
<path d="M74.3341 0.000854543C54.8738 0.000114543 35.5331 8.14111 21.7722 22.1245C8.01118 36.1079 0.000620046 55.7645 4.58664e-08 75.5406C-0.000699954 95.3176 8.01104 114.968 21.7722 128.952C35.5333 142.937 54.873 151.081 74.3341 151.08C82.3244 151.08 90.287 149.685 97.8591 147.099C95.8546 147.304 93.8416 147.417 91.8266 147.437C83.256 147.437 74.7693 145.749 66.8511 142.47C58.9329 139.19 51.7382 134.383 45.6779 128.322C39.6176 122.262 34.8103 115.067 31.5307 107.149C28.251 99.2309 26.5631 90.7442 26.5634 82.1737C26.5637 73.6035 28.252 65.1173 31.532 57.1996C34.8119 49.2818 39.6192 42.0877 45.6795 36.0278C51.7397 29.968 58.9342 25.1612 66.8521 21.8818C74.7701 18.6024 83.2564 16.9147 91.8266 16.915C108.766 16.9404 125.032 23.5514 137.186 35.3506C134.25 30.5713 130.814 26.1152 126.892 22.1289C113.132 8.1457 93.7936 0.00148454 74.3341 0.000854543ZM91.8266 28.7887C86.8598 28.7885 81.9063 29.5258 77.1368 30.9063C83.2515 32.593 88.6447 36.2378 92.4902 41.2822C96.3358 46.3266 98.4217 52.4925 98.4286 58.8355C98.4288 66.5277 95.3736 73.9049 89.9348 79.3445C84.4961 84.7841 77.1193 87.8405 69.4272 87.8414C62.881 87.8336 56.5301 85.6116 51.4069 81.5368C46.2836 77.4619 42.6895 71.7739 41.2087 65.3975C39.4069 70.7997 38.4374 76.4769 38.4372 82.1737C38.4367 96.1508 44.1912 110.042 54.0745 119.926C63.9578 129.809 77.8495 135.564 91.8266 135.563C105.803 135.563 119.692 129.809 129.574 119.926C138.074 111.425 143.507 99.9585 144.865 88.0238C142.805 89.2729 140.444 89.9359 138.036 89.9412C136.299 89.9416 134.579 89.6 132.975 88.9357C131.37 88.2715 129.912 87.2977 128.684 86.0699C127.456 84.8421 126.482 83.3844 125.817 81.7801C125.152 80.1757 124.81 78.4561 124.81 76.7195C124.809 74.9825 125.151 73.2624 125.816 71.6576C126.48 70.0527 127.454 68.5945 128.682 67.3662C129.911 66.138 131.369 65.1638 132.974 64.4992C134.579 63.8347 136.299 63.4929 138.036 63.4934C139.382 63.4948 140.72 63.7018 142.004 64.1073C139.344 56.7503 135.107 49.9591 129.574 44.4261C119.692 34.5436 105.802 28.7891 91.8266 28.7887Z" fill="black"/>
<path d="M253.04 4.909e-08C233.58 0.000640049 214.242 8.14485 200.482 22.1281C196.559 26.1143 193.124 30.5705 190.188 35.3498C202.342 23.5506 218.608 16.9396 235.547 16.9142C244.117 16.9138 252.604 18.6016 260.521 21.881C268.439 25.1603 275.634 29.9672 281.694 36.027C287.754 42.0868 292.562 49.281 295.842 57.1987C299.122 65.1164 300.81 73.6026 300.81 82.1728C300.81 90.7434 299.123 99.2301 295.843 107.148C292.563 115.067 287.756 122.261 281.696 128.322C275.635 134.382 268.441 139.189 260.523 142.469C252.604 145.748 244.118 147.436 235.547 147.436C233.532 147.416 231.519 147.304 229.515 147.098C237.087 149.684 245.049 151.079 253.04 151.079C272.501 151.08 291.84 142.936 305.602 128.951C319.363 114.967 327.374 95.3167 327.374 75.5398C327.373 55.7636 319.362 36.107 305.602 22.1236C291.841 8.14026 272.5 -0.000729951 253.04 4.909e-08ZM233.389 28.7878C228.423 28.7877 223.469 29.525 218.7 30.9055C224.814 32.5922 230.207 36.2369 234.053 41.2813C237.899 46.3257 239.985 52.4917 239.991 58.8347C239.992 66.5269 236.936 73.9041 231.498 79.3437C226.059 84.7832 218.682 87.8396 210.99 87.8405C204.444 87.8327 198.093 85.6108 192.97 81.5359C187.846 77.4611 184.252 71.7731 182.772 65.3966C180.97 70.7988 180 76.4761 180 82.1728C179.999 96.1499 185.754 110.042 195.637 119.925C205.521 129.808 219.412 135.563 233.389 135.562C247.366 135.562 261.254 129.808 271.137 119.925C279.637 111.424 285.07 99.9577 286.427 88.0229C284.368 89.2721 282.007 89.9351 279.599 89.9404C277.862 89.9408 276.142 89.5991 274.538 88.9349C272.933 88.2707 271.475 87.2968 270.247 86.0691C269.019 84.8413 268.044 83.3836 267.38 81.7792C266.715 80.1749 266.373 78.4553 266.372 76.7187C266.372 74.9817 266.714 73.2616 267.378 71.6567C268.043 70.0518 269.017 68.5936 270.245 67.3654C271.474 66.1371 272.932 65.1629 274.537 64.4984C276.141 63.8339 277.862 63.4921 279.599 63.4926C280.945 63.494 282.283 63.701 283.567 64.1065C280.907 56.7494 276.67 49.9582 271.137 44.4252C261.255 34.5428 247.365 28.7883 233.389 28.7878Z" fill="black"/>
</svg>
