<svg width="427" height="152" viewBox="0 0 427 152" fill="none" xmlns="http://www.w3.org/2000/svg">
<path d="M74.3341 0.00088506C54.8738 0.00014506 35.5331 8.14114 21.7722 22.1245C8.01118 36.1079 0.000620046 55.7645 4.58664e-08 75.5406C-0.000699954 95.3176 8.01104 114.968 21.7722 128.952C35.5333 142.937 54.873 151.081 74.3341 151.08C82.3244 151.08 90.287 149.685 97.8591 147.099C95.8546 147.305 93.8416 147.417 91.8266 147.437C83.256 147.437 74.7693 145.749 66.8511 142.47C58.9329 139.19 51.7382 134.383 45.6779 128.322C39.6176 122.262 34.8103 115.067 31.5307 107.149C28.251 99.231 26.5631 90.7443 26.5634 82.1737C26.5637 73.6035 28.252 65.1173 31.532 57.1996C34.8119 49.2819 39.6192 42.0877 45.6795 36.0279C51.7397 29.968 58.9342 25.1612 66.8521 21.8818C74.7701 18.6024 83.2564 16.9147 91.8266 16.915C108.766 16.9405 125.032 23.5514 137.186 35.3506C134.25 30.5714 130.814 26.1152 126.892 22.129C113.132 8.14573 93.7936 0.00151506 74.3341 0.00088506ZM91.8266 28.7887C86.8598 28.7886 81.9063 29.5258 77.1368 30.9063C83.2515 32.5931 88.6447 36.2378 92.4902 41.2822C96.3358 46.3266 98.4217 52.4925 98.4286 58.8356C98.4288 66.5277 95.3736 73.905 89.9348 79.3445C84.4961 84.7841 77.1193 87.8405 69.4272 87.8414C62.881 87.8336 56.5301 85.6116 51.4069 81.5368C46.2836 77.462 42.6895 71.7739 41.2087 65.3975C39.4069 70.7997 38.4374 76.477 38.4372 82.1737C38.4367 96.1508 44.1912 110.042 54.0745 119.926C63.9578 129.809 77.8495 135.564 91.8266 135.563C105.803 135.563 119.692 129.809 129.574 119.926C138.074 111.425 143.507 99.9586 144.865 88.0238C142.805 89.2729 140.444 89.9359 138.036 89.9412C136.299 89.9417 134.579 89.6 132.975 88.9358C131.37 88.2715 129.912 87.2977 128.684 86.0699C127.456 84.8422 126.482 83.3845 125.817 81.7801C125.152 80.1758 124.81 78.4562 124.81 76.7195C124.809 74.9825 125.151 73.2625 125.816 71.6576C126.48 70.0527 127.454 68.5945 128.682 67.3663C129.911 66.138 131.369 65.1638 132.974 64.4993C134.579 63.8347 136.299 63.493 138.036 63.4934C139.382 63.4948 140.72 63.7019 142.004 64.1073C139.344 56.7503 135.107 49.9591 129.574 44.4261C119.692 34.5436 105.802 28.7892 91.8266 28.7887Z" fill="#F5DEB3"/>
<path d="M351.745 4.909e-08C332.285 0.000640049 312.947 8.14485 299.187 22.1281C295.264 26.1143 291.829 30.5705 288.893 35.3498C301.047 23.5506 317.313 16.9396 334.252 16.9142C342.822 16.9138 351.309 18.6016 359.227 21.881C367.145 25.1603 374.339 29.9672 380.399 36.027C386.46 42.0868 391.267 49.281 394.547 57.1987C397.827 65.1164 399.515 73.6026 399.515 82.1728C399.516 90.7434 397.828 99.2301 394.548 107.148C391.268 115.067 386.461 122.261 380.401 128.322C374.341 134.382 367.146 139.189 359.228 142.469C351.309 145.748 342.823 147.436 334.252 147.436C332.237 147.416 330.224 147.304 328.22 147.098C335.792 149.684 343.754 151.079 351.745 151.079C371.206 151.08 390.545 142.936 404.307 128.951C418.068 114.967 426.079 95.3167 426.079 75.5398C426.078 55.7636 418.068 36.107 404.307 22.1236C390.546 8.14026 371.205 -0.000729951 351.745 4.909e-08ZM332.094 28.7878C327.128 28.7877 322.174 29.525 317.405 30.9055C323.519 32.5922 328.913 36.2369 332.758 41.2813C336.604 46.3257 338.69 52.4917 338.696 58.8347C338.697 66.5269 335.641 73.9041 330.203 79.3437C324.764 84.7832 317.387 87.8396 309.695 87.8405C303.149 87.8327 296.798 85.6108 291.675 81.5359C286.552 77.4611 282.957 71.7731 281.477 65.3966C279.675 70.7988 278.705 76.4761 278.705 82.1728C278.705 96.1499 284.459 110.042 294.342 119.925C304.226 129.808 318.117 135.563 332.094 135.562C346.071 135.562 359.96 129.808 369.842 119.925C378.342 111.424 383.775 99.9577 385.132 88.0229C383.073 89.2721 380.712 89.9351 378.304 89.9404C376.567 89.9408 374.847 89.5991 373.243 88.9349C371.638 88.2707 370.18 87.2968 368.952 86.0691C367.724 84.8413 366.749 83.3836 366.085 81.7792C365.42 80.1749 365.078 78.4553 365.078 76.7187C365.077 74.9817 365.419 73.2616 366.083 71.6567C366.748 70.0518 367.722 68.5936 368.95 67.3654C370.179 66.1371 371.637 65.1629 373.242 64.4984C374.847 63.8339 376.567 63.4921 378.304 63.4926C379.65 63.494 380.988 63.701 382.272 64.1065C379.612 56.7494 375.375 49.9582 369.842 44.4252C359.96 34.5428 346.07 28.7883 332.094 28.7878Z" fill="#F5DEB3"/>
</svg>
