<svg width="328" height="152" viewBox="0 0 328 152" fill="none" xmlns="http://www.w3.org/2000/svg">
<path d="M74.3341 0.00088506C54.8738 0.00014506 35.5331 8.14114 21.7722 22.1245C8.01118 36.1079 0.000620046 55.7645 4.58664e-08 75.5406C-0.000699954 95.3176 8.01104 114.968 21.7722 128.952C35.5333 142.937 54.873 151.081 74.3341 151.08C82.3244 151.08 90.287 149.685 97.8591 147.099C95.8546 147.305 93.8416 147.417 91.8266 147.437C83.256 147.437 74.7693 145.749 66.8511 142.47C58.9329 139.19 51.7382 134.383 45.6779 128.322C39.6176 122.262 34.8103 115.067 31.5307 107.149C28.251 99.231 26.5631 90.7443 26.5634 82.1737C26.5637 73.6035 28.252 65.1173 31.532 57.1996C34.8119 49.2819 39.6192 42.0877 45.6795 36.0279C51.7397 29.968 58.9342 25.1612 66.8521 21.8818C74.7701 18.6024 83.2564 16.9147 91.8266 16.915C108.766 16.9405 125.032 23.5514 137.186 35.3506C134.25 30.5714 130.814 26.1152 126.892 22.129C113.132 8.14573 93.7936 0.00151506 74.3341 0.00088506ZM91.8266 28.7887C86.8598 28.7886 81.9063 29.5258 77.1368 30.9063C83.2515 32.5931 88.6447 36.2378 92.4902 41.2822C96.3358 46.3266 98.4217 52.4925 98.4286 58.8356C98.4288 66.5277 95.3736 73.905 89.9348 79.3445C84.4961 84.7841 77.1193 87.8405 69.4272 87.8414C62.881 87.8336 56.5301 85.6116 51.4069 81.5368C46.2836 77.462 42.6895 71.7739 41.2087 65.3975C39.4069 70.7997 38.4374 76.477 38.4372 82.1737C38.4367 96.1508 44.1912 110.042 54.0745 119.926C63.9578 129.809 77.8495 135.564 91.8266 135.563C105.803 135.563 119.692 129.809 129.574 119.926C138.074 111.425 143.507 99.9586 144.865 88.0238C142.805 89.2729 140.444 89.9359 138.036 89.9412C136.299 89.9417 134.579 89.6 132.975 88.9358C131.37 88.2715 129.912 87.2977 128.684 86.0699C127.456 84.8422 126.482 83.3845 125.817 81.7801C125.152 80.1758 124.81 78.4562 124.81 76.7195C124.809 74.9825 125.151 73.2625 125.816 71.6576C126.48 70.0527 127.454 68.5945 128.682 67.3663C129.911 66.138 131.369 65.1638 132.974 64.4993C134.579 63.8347 136.299 63.493 138.036 63.4934C139.382 63.4948 140.72 63.7019 142.004 64.1073C139.344 56.7503 135.107 49.9591 129.574 44.4261C119.692 34.5436 105.802 28.7892 91.8266 28.7887Z" fill="black"/>
<path d="M253.04 4.909e-08C233.58 0.000640049 214.242 8.14485 200.482 22.1281C196.559 26.1143 193.124 30.5705 190.188 35.3498C202.342 23.5506 218.608 16.9396 235.547 16.9142C244.117 16.9138 252.604 18.6016 260.521 21.881C268.439 25.1603 275.634 29.9672 281.694 36.027C287.754 42.0868 292.562 49.281 295.842 57.1987C299.122 65.1164 300.81 73.6026 300.81 82.1728C300.81 90.7434 299.123 99.2301 295.843 107.148C292.563 115.067 287.756 122.261 281.696 128.322C275.635 134.382 268.441 139.189 260.523 142.469C252.604 145.748 244.118 147.436 235.547 147.436C233.532 147.416 231.519 147.304 229.515 147.098C237.087 149.684 245.049 151.079 253.04 151.079C272.501 151.08 291.84 142.936 305.602 128.951C319.363 114.967 327.374 95.3167 327.374 75.5398C327.373 55.7636 319.362 36.107 305.602 22.1236C291.841 8.14026 272.5 -0.000729951 253.04 4.909e-08ZM233.389 28.7878C228.423 28.7877 223.469 29.525 218.7 30.9055C224.814 32.5922 230.207 36.2369 234.053 41.2813C237.899 46.3257 239.985 52.4917 239.991 58.8347C239.992 66.5269 236.936 73.9041 231.498 79.3437C226.059 84.7832 218.682 87.8396 210.99 87.8405C204.444 87.8327 198.093 85.6108 192.97 81.5359C187.846 77.4611 184.252 71.7731 182.772 65.3966C180.97 70.7988 180 76.4761 180 82.1728C179.999 96.1499 185.754 110.042 195.637 119.925C205.521 129.808 219.412 135.563 233.389 135.562C247.366 135.562 261.254 129.808 271.137 119.925C279.637 111.424 285.07 99.9577 286.427 88.0229C284.368 89.2721 282.007 89.9351 279.599 89.9404C277.862 89.9408 276.142 89.5991 274.538 88.9349C272.933 88.2707 271.475 87.2968 270.247 86.0691C269.019 84.8413 268.044 83.3836 267.38 81.7792C266.715 80.1749 266.373 78.4553 266.372 76.7187C266.372 74.9817 266.714 73.2616 267.378 71.6567C268.043 70.0518 269.017 68.5936 270.245 67.3654C271.474 66.1371 272.932 65.1629 274.537 64.4984C276.141 63.8339 277.862 63.4921 279.599 63.4926C280.945 63.494 282.283 63.701 283.567 64.1065C280.907 56.7494 276.67 49.9582 271.137 44.4252C261.255 34.5428 247.365 28.7883 233.389 28.7878Z" fill="black"/>
</svg>
