<svg width="800" height="800" viewBox="0 0 800 800" fill="none" xmlns="http://www.w3.org/2000/svg">
<g clip-path="url(#clip0_11_2)">
<path d="M799.652 571.584L741.423 316.899C741.302 316.372 741.147 315.862 740.972 315.364C736.539 299.255 715.193 287.083 673.59 276.84C665.677 235.267 629.08 203.733 585.237 203.733C582.44 203.733 579.636 203.867 576.836 204.13C561.55 174.622 530.734 155.481 496.913 155.481C486.59 155.481 476.337 157.269 466.673 160.711C452.245 138.288 427.358 124.404 400.002 124.404C372.646 124.404 347.76 138.286 333.33 160.711C323.667 157.269 313.413 155.481 303.091 155.481C269.269 155.481 238.454 174.623 223.167 204.13C220.367 203.865 217.563 203.733 214.766 203.733C170.923 203.733 134.326 235.267 126.413 276.84C83.8392 287.323 62.4664 299.821 58.7371 316.496C58.6815 316.699 58.6128 316.895 58.567 317.103L0.350025 571.583C0.117765 572.598 0 573.639 0 574.682C0 601.328 41.6072 625.089 123.662 645.305C202.951 664.84 301.09 675.597 400 675.597C498.911 675.597 597.049 664.84 676.338 645.305C758.394 625.089 800 601.328 800 574.684C800 573.64 799.884 572.602 799.652 571.584ZM674.361 305.763C700.824 312.945 710.07 319.259 713.047 321.984C709.625 325.124 697.901 333.023 661.446 341.462C668.196 330.697 672.633 318.547 674.361 305.763ZM214.765 231.537C219.343 231.537 223.967 232.057 228.509 233.081C235.343 234.625 242.253 230.841 244.64 224.256C253.524 199.75 277.012 183.284 303.089 183.284C313.501 183.284 323.803 185.909 332.875 190.876C336.338 192.771 340.442 193.106 344.166 191.796C347.889 190.486 350.88 187.654 352.393 184.008C360.408 164.688 379.095 152.207 400.002 152.207C420.908 152.207 439.594 164.69 447.608 184.008C449.121 187.654 452.113 190.486 455.836 191.796C459.56 193.106 463.665 192.771 467.126 190.876C476.199 185.909 486.5 183.284 496.913 183.284C522.99 183.284 546.477 199.75 555.362 224.256C557.748 230.84 564.661 234.628 571.493 233.081C576.035 232.057 580.659 231.537 585.237 231.537C619.508 231.537 646.46 259.432 647.391 293.691C648.035 317.402 631.12 338.234 614.634 350.154C555.383 359.045 479.428 363.929 400.002 363.929C322.546 363.929 248.398 359.283 189.818 350.807C167.933 340.6 152.613 317.846 152.613 293.691C152.611 259.419 180.493 231.537 214.765 231.537ZM125.634 305.765C127.375 318.588 131.853 330.738 138.582 341.469C102.108 333.027 90.3768 325.126 86.955 321.984C89.9302 319.259 99.1748 312.947 125.634 305.765ZM663.516 619.799C587.379 637.852 493.794 647.793 400.002 647.793C306.21 647.793 212.624 637.852 136.485 619.799C61.485 602.017 31.7934 582.617 28.0756 575.078L79.454 350.483C84.724 353.44 89.6947 355.442 92.6176 356.618C110.055 363.638 134.665 369.883 165.761 375.179C228.453 385.855 311.64 391.735 400.002 391.735C488.363 391.735 571.55 385.855 634.24 375.179C665.337 369.883 689.947 363.638 707.384 356.618C710.312 355.439 715.294 353.434 720.575 350.468L771.928 575.076C768.212 582.613 738.52 602.015 663.516 619.799Z" fill="white"/>
<path d="M569.127 402.823C536.822 402.823 509.932 426.46 504.841 457.344H295.159C290.069 426.458 263.178 402.823 230.873 402.823C194.948 402.823 165.72 432.05 165.72 467.975C165.72 482.305 170.403 496.028 178.874 507.23C170.403 518.433 165.72 532.156 165.72 546.485C165.72 582.41 194.948 611.638 230.873 611.638C263.178 611.638 290.068 588.001 295.159 557.117H504.841C509.931 588.003 536.822 611.638 569.127 611.638C605.052 611.638 634.28 582.41 634.28 546.485C634.28 532.156 629.597 518.433 621.126 507.23C629.597 496.028 634.28 482.305 634.28 467.975C634.28 432.05 605.052 402.823 569.127 402.823ZM593.122 517.878C601.608 525.003 606.474 535.43 606.474 546.487C606.474 567.08 589.72 583.833 569.127 583.833C548.533 583.833 531.78 567.08 531.78 546.487C531.78 545.684 531.812 544.887 531.863 544.097C532.107 540.265 530.754 536.502 528.125 533.703C525.497 530.903 521.828 529.315 517.988 529.315H282.012C278.172 529.315 274.503 530.903 271.875 533.703C269.246 536.503 267.893 540.265 268.137 544.097C268.188 544.887 268.221 545.684 268.221 546.487C268.221 567.08 251.467 583.833 230.873 583.833C210.28 583.833 193.526 567.08 193.526 546.487C193.526 535.432 198.392 525.005 206.878 517.878C210.023 515.237 211.84 511.339 211.84 507.232C211.84 503.125 210.025 499.227 206.878 496.586C198.392 489.461 193.526 479.034 193.526 467.977C193.526 447.384 210.28 430.63 230.873 430.63C251.467 430.63 268.221 447.384 268.221 467.977C268.221 468.78 268.188 469.576 268.137 470.367C267.893 474.199 269.246 477.962 271.875 480.761C274.501 483.561 278.172 485.149 282.012 485.149H517.988C521.828 485.149 525.497 483.561 528.125 480.761C530.754 477.961 532.107 474.199 531.863 470.367C531.812 469.576 531.78 468.78 531.78 467.977C531.78 447.384 548.533 430.63 569.127 430.63C589.72 430.63 606.474 447.384 606.474 467.977C606.474 479.032 601.608 489.459 593.122 496.586C589.977 499.227 588.16 503.125 588.16 507.232C588.161 511.339 589.977 515.237 593.122 517.878Z" fill="white"/>
</g>
<defs>
<clipPath id="clip0_11_2">
<rect width="800" height="800" fill="white"/>
</clipPath>
</defs>
</svg>
