<svg width="800" height="800" viewBox="0 0 800 800" fill="none" xmlns="http://www.w3.org/2000/svg">
<g clip-path="url(#clip0_10_39)">
<path d="M723.818 305.781L641.79 67.4265V12.2938C641.79 8.44846 639.99 4.82503 636.927 2.50003C633.865 0.175036 629.893 -0.582775 626.187 0.454723L572.241 15.5422L518.117 0.453161C515.959 -0.148401 513.673 -0.148401 511.515 0.453161L457.384 15.5438L403.254 0.453161C401.096 -0.148401 398.81 -0.148401 396.653 0.453161L342.523 15.5438L288.394 0.453161C286.236 -0.148401 283.95 -0.148401 281.792 0.453161L227.659 15.5438L175.078 0.885972C173.661 0.315661 172.113 0.00159895 170.492 0.00159895H170.225C164.08 0.00159895 158.878 4.54065 158.045 10.6266C157.847 12.0688 157.911 13.4922 158.198 14.8469V67.4468L76.1814 305.781C75.7393 307.067 75.5127 308.42 75.5127 309.781V554.957C75.5127 561.747 81.0158 567.249 87.8049 567.249C94.5939 567.249 100.097 561.747 100.097 554.957V311.837L179.269 81.7749H526.656C533.445 81.7749 538.948 76.2733 538.948 69.4827C538.948 62.6921 533.445 57.1906 526.656 57.1906H182.786V28.5562L224.358 40.1453C226.516 40.7468 228.801 40.7468 230.959 40.1453L285.089 25.0547L339.218 40.1453C341.376 40.7468 343.662 40.7468 345.82 40.1453L399.95 25.0547L454.079 40.1453C456.237 40.7468 458.523 40.7468 460.681 40.1453L514.812 25.0547L568.941 40.1453C571.105 40.7468 573.391 40.7468 575.554 40.1421L617.201 28.4953V57.189H566.945C560.155 57.189 554.652 62.6905 554.652 69.4811C554.652 76.2718 560.155 81.7733 566.945 81.7733H612.263L535.174 305.781C534.732 307.067 534.506 308.42 534.506 309.781V775.416H100.097V595.247C100.097 588.457 94.5939 582.955 87.8049 582.955C81.0158 582.955 75.5127 588.457 75.5127 595.247V787.708C75.5127 794.498 81.0158 800 87.8049 800H546.804C547.204 800 547.606 799.978 548.006 799.939C548.199 799.92 548.387 799.884 548.577 799.858C548.777 799.828 548.979 799.805 549.179 799.766C549.413 799.72 549.643 799.658 549.873 799.598C550.026 799.559 550.177 799.527 550.329 799.48C550.573 799.408 550.81 799.319 551.048 799.231C551.159 799.191 551.273 799.159 551.382 799.116L551.571 799.041C551.579 799.038 551.588 799.034 551.599 799.03L716.775 732.749C721.436 730.877 724.49 726.36 724.49 721.339V309.779C724.486 308.42 724.26 307.067 723.818 305.781ZM699.901 713.025L559.095 769.528V311.837L629.496 107.258L699.899 311.835V713.025H699.901Z" fill="white"/>
<path d="M337.442 533.526L336.931 533.013C326.389 522.471 310.126 516.901 289.901 516.901C255.517 516.897 216.344 532.88 202.583 552.527C196.666 560.974 195.116 570.33 198.22 578.869C203.242 592.683 213.13 604.061 227.609 612.688C233.728 616.333 239.395 620.761 244.508 625.905C249.597 630.963 254.025 636.63 257.672 642.75C266.3 657.231 277.678 667.117 291.489 672.139C294.364 673.185 297.356 673.714 300.384 673.714H300.387C316.478 673.714 331.882 658.807 342.651 632.813C355.925 600.774 359.926 556.007 337.442 533.526ZM319.939 623.402C311.964 642.652 303.173 649.13 300.389 649.128C300.273 649.128 300.122 649.117 299.889 649.032C291.54 645.996 284.443 639.649 278.79 630.164C274.09 622.275 268.387 614.974 261.89 608.518C255.378 601.966 248.078 596.263 240.192 591.564C230.709 585.914 224.361 578.816 221.325 570.468C220.94 569.408 222.033 567.61 222.719 566.63C230.865 555 261.987 541.48 289.901 541.48C303.27 541.48 313.8 544.647 319.614 550.46L319.964 550.811C333.264 564.111 330.395 598.164 319.939 623.402Z" fill="white"/>
<path d="M364.431 396.777C358.606 394.568 352.515 393.451 346.328 393.451C325.231 393.451 306.031 406.707 298.551 426.437C289.206 451.084 289.939 505.272 319.106 516.332C322.4 517.582 325.936 518.213 329.612 518.213H329.614C357.703 518.213 386.942 481.513 394.089 462.657C404.078 436.319 390.773 406.766 364.431 396.777ZM371.104 453.941C365.164 469.613 341.876 493.63 329.617 493.629C328.919 493.629 328.333 493.535 327.825 493.343C318.328 489.741 314.454 453.849 321.54 435.154C325.423 424.915 335.386 418.037 346.331 418.037C349.531 418.037 352.687 418.618 355.717 419.768C369.381 424.948 376.283 440.279 371.104 453.941Z" fill="white"/>
<path d="M282.221 444.396C277.949 423.24 259.202 407.885 237.645 407.885C234.623 407.885 231.579 408.191 228.598 408.793C216.681 411.199 206.413 418.102 199.69 428.23C192.965 438.36 190.587 450.499 192.995 462.416C197.103 482.746 220.249 520.09 245.749 520.093H245.752C247.513 520.093 249.268 519.918 250.973 519.576C278.21 514.074 286.81 467.115 282.221 444.396ZM246.107 495.477C246.001 495.499 245.885 495.51 245.754 495.51H245.752C237.513 495.508 220.103 472.449 217.093 457.549C215.987 452.069 217.081 446.488 220.171 441.829C223.263 437.173 227.984 433.998 233.463 432.891C234.845 432.612 236.251 432.469 237.643 432.469C247.545 432.469 256.156 439.532 258.123 449.262C261.457 465.766 252.992 494.087 246.107 495.477Z" fill="white"/>
<path d="M473.579 505.924C466.099 486.196 446.897 472.94 425.802 472.94C419.615 472.94 413.524 474.058 407.699 476.266C395.468 480.904 380.372 491.983 369.244 504.491C354.348 521.235 348.944 537.841 354.027 551.25C362.832 574.477 396.438 576.983 410.477 576.983C423.051 576.983 435.24 575.097 443.921 571.805C470.261 561.819 483.564 532.265 473.579 505.924ZM435.205 548.819C429.377 551.029 419.904 552.399 410.477 552.399C391.872 552.399 378.854 547.385 377.015 542.535C375.762 539.227 378.543 531.027 387.612 520.833C397.443 509.785 409.433 501.902 416.413 499.255C419.444 498.108 422.602 497.524 425.801 497.524C436.746 497.524 446.708 504.401 450.591 514.64C455.771 528.305 448.869 543.638 435.205 548.819Z" fill="white"/>
<path d="M425.961 588.133C422.18 587.369 417.833 586.983 413.039 586.983C390.644 586.983 355.582 595.613 350.782 619.383C348.213 632.097 355.308 645.989 370.76 658.5C382.107 667.688 396.702 675.092 407.939 677.363C410.921 677.964 413.966 678.27 416.988 678.27C438.544 678.27 457.293 662.916 461.566 641.761C466.535 617.158 450.563 593.103 425.961 588.133ZM437.466 636.891C435.5 646.621 426.888 653.683 416.986 653.683C415.594 653.683 414.188 653.542 412.805 653.261C406.55 651.997 395.413 646.828 386.23 639.392C377.208 632.088 374.48 626.228 374.879 624.252C375.868 619.36 393.732 611.569 413.038 611.569C416.977 611.569 419.593 611.932 421.093 612.233C432.407 614.517 439.75 625.58 437.466 636.891Z" fill="white"/>
</g>
<defs>
<clipPath id="clip0_10_39">
<rect width="800" height="800" fill="white"/>
</clipPath>
</defs>
</svg>
