<svg width="800" height="800" viewBox="0 0 800 800" fill="none" xmlns="http://www.w3.org/2000/svg">
<g clip-path="url(#clip0_10_58)">
<path d="M264.393 350.32C284.247 350.32 300.341 328.697 300.341 302.024C300.341 275.352 284.247 253.729 264.393 253.729C244.539 253.729 228.445 275.352 228.445 302.024C228.445 328.697 244.539 350.32 264.393 350.32Z" fill="white"/>
<path d="M342.608 379.251C361.008 386.758 384.086 372.892 394.205 348.255C404.331 323.581 397.717 297.466 379.293 289.912C361.005 282.384 337.876 296.281 327.777 320.901C317.645 345.616 324.316 371.669 342.608 379.251Z" fill="white"/>
<path d="M186.148 379.251C204.47 371.669 211.114 345.616 200.978 320.901C190.903 296.281 167.805 282.411 149.456 289.912C131.031 297.439 124.421 323.584 134.551 348.255C144.707 372.868 167.805 386.741 186.148 379.251Z" fill="white"/>
<path d="M800 600.956L745.24 434.815C745.145 434.503 744.775 434.408 744.639 434.136C738.362 385.97 631.057 359.787 529.072 359.787C520.25 359.787 511.419 360.249 502.597 360.633C488.317 296.26 473.629 229.71 481.578 165.235C481.632 164.682 481.156 164.349 481.156 163.839C484.774 159.689 487.254 155.235 487.254 150.106V96.379C487.254 43.5622 272.491 42.9508 263.378 42.9508C254.24 42.9508 39.4608 43.5622 39.4608 96.379V150.099C39.4608 155.164 41.971 159.614 45.5648 163.778C45.5648 164.318 45.1097 164.678 45.1912 165.188C53.1193 229.989 38.3195 296.868 23.9884 361.567C9.25308 428.107 -6.00533 496.902 2.39494 565.752C9.05606 616.089 68.6393 653.742 117.455 653.742H125.464C118.718 664.402 114.146 676.474 114.146 689.419C114.146 700.717 117.064 712.042 122.584 722.103C134.524 743.666 157.221 757.046 181.8 757.046C188.927 757.046 195.968 755.959 201.648 753.972C222.82 749.288 247.725 729.494 275.616 695.177H524.703C526.161 695.177 527.564 695.326 528.994 695.326C530.451 695.326 531.84 695.177 533.297 695.177H590.713C618.659 729.494 643.5 749.287 663.714 753.656C670.45 755.901 677.529 757.046 684.594 757.046C709.234 757.046 731.884 743.666 743.861 722.049C749.361 712.042 752.248 700.798 752.248 689.365C752.248 677.466 748.23 666.426 742.462 656.314C777.717 640.339 800 621.116 800 600.956ZM745.947 629.87C749.799 621.32 752.36 612.268 752.36 602.658C752.36 591.275 749.459 580.022 743.946 569.974C732.061 548.411 709.357 535.031 684.693 535.031C677.668 535.031 670.657 536.122 664.913 538.041C643.788 542.789 618.89 562.532 590.944 596.792H512.539H484.034H282.947L309.642 516.699L326.385 466.44C329.639 469.721 333.114 472.812 337.397 475.805C337.424 475.805 337.424 475.862 337.424 475.862C337.424 475.862 337.452 475.862 337.479 475.862C342.53 479.344 347.649 482.846 354.011 485.924C390.601 503.675 446.784 513.733 503.864 516.128C511.419 516.481 519 516.851 526.568 516.906C527.441 516.906 528.301 516.964 529.184 516.964C612.779 516.964 699.57 499.253 731.996 466.446L777.242 602.42C775.975 610.392 764.351 620.124 745.947 629.87ZM729.612 689.344C729.612 697.048 727.801 704.345 724.072 711.07C716.147 725.391 701.052 734.294 684.676 734.294C679.978 734.294 675.378 733.516 669.767 731.719C655.731 728.672 636.798 713.356 615.863 689.263C612.894 685.805 610.007 682.605 606.991 678.824C606.335 678.074 605.737 677.476 605.109 676.684L601.705 672.367H533.399H524.7H408.839H360.224H264.706L261.289 676.684C236.016 708.567 213.115 728.129 195.642 732.005C175.462 738.622 152.632 729.389 142.438 711.07C138.742 704.294 136.871 697.035 136.871 689.371C136.871 675.991 142.819 663.304 153.145 654.66L154.344 653.637L163.614 645.93L153.145 637.231C151.035 635.488 149.993 632.985 148.26 630.953C141.494 622.91 136.874 613.3 136.874 602.655C136.874 594.991 138.746 587.682 142.414 581.01C150.37 566.638 165.462 557.786 181.804 557.786C186.505 557.786 191.169 558.51 196.743 560.28C213.091 563.924 236.078 583.459 261.35 615.325L263.704 618.226L264.77 619.574H279.458H295.569H453.323H493.276H601.807L605.197 615.325C630.5 583.459 653.479 563.897 670.82 559.964C691.242 553.401 713.864 562.617 723.99 580.956C727.747 587.732 729.571 594.991 729.571 602.655C729.571 616.035 723.65 628.722 713.29 637.339L702.825 646.093L704.309 647.292L713.348 654.792C713.66 655.05 713.81 655.431 714.068 655.706C717.146 658.386 719.119 661.817 721.313 665.098C726.181 672.313 729.612 680.441 729.612 689.344ZM529.072 382.464C649.339 382.464 723.104 415.026 723.104 438.358C723.104 461.688 649.284 494.304 529.072 494.304C527.614 494.304 526.337 494.141 524.934 494.141C517.013 494.086 509.591 493.675 502.118 493.363C471.995 492.055 445.246 488.886 422.636 484.188C445.643 478.77 472.067 475.343 500.406 473.885C507.906 473.464 515.437 473.148 523.168 473.097C525.169 473.043 527.102 472.839 529.129 472.839C535.407 472.839 540.512 467.792 540.512 461.487C540.512 455.237 535.434 450.132 529.129 450.132C526.106 450.132 523.25 450.39 520.226 450.448C512.482 450.553 504.914 450.909 497.383 451.276C452.491 453.78 411.638 461.171 381.318 472.785C373.56 469.979 366.712 467.051 360.839 463.991C372.921 454.296 395.639 445.084 426.152 438.358C445.592 434.095 467.984 430.736 493.562 429.139C500.871 428.677 508.715 428.569 516.47 428.419C520.719 428.311 524.761 427.998 529.157 427.998C535.434 427.998 540.539 422.947 540.539 416.643C540.539 410.396 535.461 405.304 529.157 405.304C523.399 405.304 517.954 405.61 512.332 405.793C504.547 405.99 496.816 406.248 489.339 406.761C433.788 410.498 387.137 421.843 358.688 438.409C357.19 439.296 356.097 440.288 354.734 441.171C349.942 444.245 345.641 447.472 342.129 450.865C338.039 446.589 335.189 442.37 335.189 438.409C335.189 433.413 339.252 427.94 345.726 422.577C365.594 405.909 414.039 389.247 484.523 384.156C491.795 383.619 499.812 383.527 507.543 383.242C514.645 382.95 521.517 382.464 529.072 382.464ZM263.398 127.042C201.393 127.042 152.418 121.977 118.236 115.703C163.43 103.329 202.463 103.567 265.208 107.493C271.323 107.249 276.843 103.071 277.243 96.841C277.644 90.5807 272.865 85.19 266.605 84.8299C187.544 79.8128 142.336 80.4786 77.0124 105.336C68.7684 102.368 63.6188 99.5924 62.2363 97.3777V97.1195C68.3132 85.7538 140.125 65.6754 263.401 65.6754C387.191 65.6754 459.203 85.9169 464.757 95.4857C459.254 106.794 387.238 127.042 263.398 127.042ZM62.2363 150.076V122.137C64.8484 123.411 67.627 124.634 70.5517 125.778C72.5592 127.446 74.903 128.53 77.5491 128.53C77.6781 128.53 77.8072 128.448 77.9907 128.448C140.152 149.308 256.71 149.739 263.398 149.739C270.708 149.739 409.396 149.254 464.617 122.083L464.696 149.206C459.155 160.531 387.16 180.779 263.374 180.779C139.588 180.776 67.6542 160.528 62.2363 150.076ZM117.482 630.957C79.6449 630.957 29.9464 600.521 24.9565 562.868C17.0419 497.989 31.8316 431.171 46.1525 366.475C59.7227 305.16 72.9192 241.922 68.4423 178.639C127.275 203.038 256.363 203.507 263.401 203.507C270.446 203.507 399.484 203.038 458.293 178.639C453.975 240.4 466.363 302.103 479.648 362.019C417.545 367.111 359.643 381.594 331.083 404.951C311.242 386.099 284.421 374.132 264.098 374.179C231.325 374.206 181.145 405.888 172.004 447.285C170.35 452.469 169.354 457.995 169.385 463.756C169.494 484.066 180.662 501.556 197.201 510.758C204.878 514.993 213.761 517.347 223.173 517.347C239.787 517.347 254.577 509.766 264.373 497.894C270.26 504.915 278.188 509.711 286.846 512.962L263.486 583.15C240.558 557.681 219.837 542.164 202.721 538.323C172.235 528.564 137.968 542.215 122.591 570.028C117.098 579.964 114.177 591.275 114.177 602.655C114.177 612.699 117.098 622.108 121.249 630.953H117.482V630.957Z" fill="white"/>
</g>
<defs>
<clipPath id="clip0_10_58">
<rect width="800" height="800" fill="white"/>
</clipPath>
</defs>
</svg>
