<svg width="800" height="800" viewBox="0 0 800 800" fill="none" xmlns="http://www.w3.org/2000/svg">
<path d="M606.923 245.014C606.923 245.014 713.788 547.693 696.438 563.53C681.853 576.848 686.495 572.407 686.495 572.407M606.923 245.014V227.257M606.923 245.014L594.563 531.348M686.495 572.407C678.758 582.395 608.03 627.795 590.348 629.01M686.495 572.407C654.393 570.447 632.553 568.943 593.605 553.543M606.923 227.257C606.923 227.257 608.573 198.596 608.03 196.181C607.485 193.765 239.334 193.847 237.814 198.402C236.294 202.957 234.498 236.136 234.498 236.136M606.923 227.257C584.848 227.504 572.733 227.781 551.668 228.575M594.563 531.348L593.605 553.543M594.563 531.348C569.63 534.45 536.688 536.032 464.628 539.012M590.348 629.01C573.773 636.778 241.13 636.778 190.295 625.68C171.508 621.578 153.4 612.407 141.67 592.385C128.073 569.177 135.037 524.688 135.037 524.688M590.348 629.01L593.605 553.543M135.037 524.688C163.269 415.332 183.458 352.653 234.498 236.136M135.037 524.688C148.645 534.455 164.11 537.187 224.553 539.012M234.498 236.136C318.008 236.254 364.183 235.09 445.575 231.103M224.553 539.012C224.553 539.012 252.118 505.457 275.388 476.862C289.755 459.207 315.173 420.362 316.278 408.155C316.278 408.155 318.855 389.823 316.278 379.3M224.553 539.012C324.28 542.982 386.103 543.495 464.628 539.012M464.628 539.012C460.373 538.542 449.998 470.305 457.733 459.207C461.318 454.065 478.73 455.877 490.888 454.767C506.265 453.365 513.898 452.535 521.83 439.23C527.225 430.183 528.095 421.472 526.988 411.485M316.278 379.3C307.883 376.51 301.91 373.755 301.91 364.875C301.91 355.995 340.59 330.47 350.538 330.47C360.483 330.47 361.588 339.347 361.588 339.347M316.278 379.3C324.015 382.63 332.255 387.07 340.59 387.07C348.328 387.07 351.293 386.693 358.273 381.52C366.29 375.578 368.163 370.385 367.113 360.435C366.198 351.762 361.588 339.347 361.588 339.347M361.588 339.347C361.588 339.347 402.478 331.577 425.685 333.797C435.225 334.71 440.38 337.127 446.683 346.005C452.985 354.885 443.668 378.785 456.628 380.41C474.31 382.628 501.57 380.41 501.57 380.41M501.57 380.41C501.57 380.41 498.488 394.632 505.253 403.717C511.398 411.967 517.043 412.595 526.988 411.485M501.57 380.41C518.275 379.995 536.935 375.97 526.988 411.485M406.898 372.643C407.273 380.445 407.3 384.818 406.898 392.62M161.56 560.202V575.74M182.558 581.287V596.825M584.823 245.014C584.473 252.19 584.388 255.71 584.823 259.443M561.615 262.77C561.163 265.993 561.11 268.897 561.615 277.2" stroke="white" stroke-width="12.5" stroke-linecap="round"/>
</svg>
