<svg width="800" height="800" viewBox="0 0 800 800" fill="none" xmlns="http://www.w3.org/2000/svg">
<g clip-path="url(#clip0_6_2)">
<path d="M315.82 182.405C286.748 182.405 263.097 206.056 263.097 235.128C263.097 242.048 268.708 247.658 275.627 247.658C282.547 247.658 288.156 242.047 288.156 235.128C288.156 219.875 300.566 207.464 315.82 207.464C331.073 207.464 343.484 219.873 343.484 235.128C343.484 242.048 349.095 247.658 356.014 247.658C362.933 247.658 368.544 242.047 368.544 235.128C368.544 206.058 344.892 182.405 315.82 182.405Z" fill="white"/>
<path d="M484.167 182.405C455.095 182.405 431.442 206.056 431.442 235.128C431.442 242.048 437.05 247.658 443.972 247.658C450.894 247.658 456.502 242.047 456.502 235.128C456.502 219.875 468.911 207.464 484.167 207.464C499.42 207.464 511.831 219.873 511.831 235.128C511.831 242.048 517.439 247.658 524.361 247.658C531.283 247.658 536.891 242.047 536.891 235.128C536.892 206.058 513.241 182.405 484.167 182.405Z" fill="white"/>
<path d="M399.994 268.534C370.922 268.534 347.27 292.186 347.27 321.258C347.27 328.178 352.881 333.787 359.8 333.787C366.719 333.787 372.33 328.177 372.33 321.258C372.33 306.005 384.739 293.594 399.994 293.594C415.247 293.594 427.658 306.003 427.658 321.258C427.658 328.178 433.266 333.787 440.187 333.787C447.109 333.787 452.717 328.177 452.717 321.258C452.717 292.186 429.067 268.534 399.994 268.534Z" fill="white"/>
<path d="M209.328 268.534C180.256 268.534 156.605 292.186 156.605 321.258C156.605 328.178 162.216 333.787 169.134 333.787C176.053 333.787 181.664 328.177 181.664 321.258C181.664 306.005 194.073 293.594 209.328 293.594C224.581 293.594 236.992 306.003 236.992 321.258C236.992 328.178 242.603 333.787 249.522 333.787C256.442 333.787 262.052 328.177 262.052 321.258C262.052 292.184 238.4 268.534 209.328 268.534Z" fill="white"/>
<path d="M590.658 268.534C561.586 268.534 537.933 292.186 537.933 321.258C537.933 328.178 543.541 333.787 550.463 333.787C557.384 333.787 562.992 328.177 562.992 321.258C562.992 306.005 575.402 293.594 590.658 293.594C605.911 293.594 618.322 306.003 618.322 321.258C618.322 328.178 623.93 333.787 630.852 333.787C637.772 333.787 643.381 328.177 643.381 321.258C643.381 292.186 619.731 268.534 590.658 268.534Z" fill="white"/>
<path d="M464.123 612.966C458.027 585.488 431.763 545.734 400.219 545.734H399.77V545.736C368.23 545.736 341.964 585.488 335.867 612.964C330.05 639.175 342.802 648.253 348.556 650.938C359.23 655.919 371.656 656.805 384.633 653.519C389.559 652.27 394.652 651.639 399.767 651.639H400.22C405.336 651.639 410.428 652.27 415.353 653.519C420.486 654.819 425.564 655.477 430.45 655.477H430.452C437.92 655.477 444.978 653.95 451.431 650.938C457.184 648.253 469.939 639.178 464.123 612.966ZM440.197 628.514C437.223 629.795 434.027 630.419 430.45 630.419C427.636 630.419 424.628 630.017 421.505 629.228C414.569 627.472 407.406 626.581 400.219 626.581H399.766C392.577 626.581 385.416 627.472 378.48 629.228C371.445 631.011 365.089 630.789 359.786 628.514C358.68 625.309 359.731 613.136 369.052 597.181C378.272 581.4 390.616 570.797 399.767 570.797H400.212C409.366 570.795 421.711 581.398 430.931 597.181C440.253 613.138 441.303 625.311 440.197 628.514Z" fill="white"/>
<path d="M394.194 479.15C387.423 464.106 372.388 454.389 355.888 454.389C349.927 454.389 344.133 455.638 338.666 458.098C317.552 467.603 308.106 492.512 317.613 513.628C325.298 530.7 345.309 544.073 363.169 544.075H363.17C368.111 544.075 372.778 543.102 377.044 541.181C398.497 531.522 403.791 500.466 394.194 479.15ZM366.759 518.325C365.75 518.78 364.542 519.009 363.173 519.009H363.172C355.128 519.009 344.092 511.392 340.466 503.336C338.609 499.211 338.469 494.611 340.073 490.383C341.675 486.155 344.83 482.803 348.953 480.947C351.164 479.952 353.495 479.448 355.886 479.448C362.544 479.448 368.609 483.369 371.342 489.436C375.944 499.65 373.458 515.309 366.759 518.325Z" fill="white"/>
<path d="M323.169 528.061C316.958 523.938 309.744 521.758 302.308 521.758C289.611 521.758 277.842 528.069 270.825 538.636C259.311 555.981 264.052 579.463 281.398 590.978C289.463 596.333 300.895 599.528 311.975 599.528C325.592 599.528 336.309 594.688 342.145 585.897C354.678 567.023 339.023 538.588 323.169 528.061ZM321.272 572.036C320.647 572.977 317.573 574.469 311.98 574.469H311.978C306.011 574.469 299.134 572.673 295.261 570.1C289.427 566.227 287.831 558.33 291.705 552.495C294.066 548.941 298.03 546.817 302.308 546.817C304.797 546.817 307.216 547.55 309.308 548.939C317.639 554.47 323.52 568.65 321.272 572.036Z" fill="white"/>
<path d="M461.319 458.095C455.852 455.634 450.058 454.386 444.097 454.386C427.597 454.386 412.561 464.105 405.788 479.147C401.411 488.87 400.098 501.333 402.281 512.486C404.962 526.198 412.298 536.389 422.936 541.177C427.203 543.097 431.87 544.07 436.811 544.07C454.67 544.07 474.683 530.698 482.369 513.623C491.877 492.511 482.434 467.6 461.319 458.095ZM459.52 503.337C455.894 511.394 444.859 519.011 436.814 519.011C435.444 519.011 434.236 518.78 433.228 518.327C429.006 516.425 427.381 510.245 426.878 507.677C425.673 501.519 426.35 494.53 428.642 489.437C431.373 483.37 437.442 479.45 444.1 479.45C446.491 479.45 448.823 479.955 451.031 480.948C455.156 482.805 458.311 486.156 459.913 490.384C461.516 494.613 461.377 499.212 459.52 503.337Z" fill="white"/>
<path d="M529.158 538.634C522.141 528.067 510.372 521.759 497.677 521.759C490.242 521.758 483.028 523.939 476.814 528.062C468.939 533.292 461.641 542.328 457.292 552.237C451.695 564.987 451.889 576.944 457.836 585.9C463.672 594.689 474.386 599.53 488.008 599.53C499.089 599.53 510.52 596.334 518.586 590.978C535.933 579.461 540.677 555.98 529.158 538.634ZM504.723 570.1C500.848 572.673 493.973 574.469 488.006 574.469C482.411 574.469 479.339 572.977 478.712 572.037C478.075 571.075 477.923 567.583 480.239 562.308C482.992 556.031 487.466 551.072 490.675 548.941C492.766 547.553 495.186 546.819 497.675 546.819C501.955 546.817 505.92 548.941 508.281 552.495C512.153 558.33 510.558 566.227 504.723 570.1Z" fill="white"/>
<path d="M797.364 514.984C785.914 449.641 743.563 363.098 722.272 322.447C722.845 321.587 723.425 320.733 723.964 319.866C738.02 297.305 737.431 277.361 734.459 264.605C728.436 238.723 706.659 219.206 683.811 219.206C678.631 219.206 673.508 219.697 668.48 220.67C656.817 189.841 626.973 168.609 593.097 168.609C588.338 168.609 583.63 169.022 578.998 169.839C568.556 137 537.684 113.65 502.195 113.65C489.214 113.65 476.714 116.683 465.411 122.508C450.428 101.583 426.409 89.0422 399.995 89.0422C373.578 89.0422 349.561 101.581 334.58 122.508C323.278 116.684 310.777 113.65 297.795 113.65C262.306 113.65 231.431 137 220.992 169.839C216.363 169.022 211.655 168.609 206.895 168.609C173.019 168.609 143.175 189.841 131.513 220.67C126.484 219.698 121.359 219.206 116.18 219.206C93.3297 219.206 71.5547 238.723 65.5313 264.603C62.561 277.361 61.9703 297.305 76.0281 319.867C76.5672 320.733 77.1453 321.586 77.7172 322.444C65.6641 345.462 46.2219 384.434 29.7703 425.87C27.2172 432.303 30.3625 439.587 36.7922 442.139C38.3094 442.741 39.8735 443.027 41.4141 443.027C46.3985 443.027 51.1125 440.031 53.0641 435.117C67.186 399.547 83.611 365.759 95.386 342.816C96.7938 344.114 98.25 345.398 99.7485 346.669C99.7985 346.712 99.8485 346.756 99.8985 346.797C99.9266 346.82 99.9563 346.845 99.9844 346.869C101.044 347.762 102.125 348.65 103.227 349.528C103.28 349.572 103.331 349.614 103.386 349.656C103.466 349.72 103.548 349.783 103.628 349.845C106.294 351.958 109.088 354.03 112.008 356.061C112.241 356.223 112.47 356.386 112.706 356.548C112.777 356.597 112.848 356.644 112.919 356.692C113.92 357.378 114.934 358.061 115.964 358.737C116.241 358.922 116.517 359.106 116.8 359.291C117.016 359.431 117.238 359.567 117.455 359.708C118.395 360.314 119.345 360.919 120.309 361.517C120.566 361.678 120.814 361.836 121.077 361.997C121.6 362.317 122.141 362.644 122.698 362.977C123.438 363.42 124.177 363.864 124.927 364.303C125.128 364.423 125.325 364.542 125.533 364.662C126.106 364.995 126.7 365.328 127.292 365.661C128.095 366.117 128.894 366.577 129.711 367.03C129.866 367.117 130.016 367.202 130.177 367.291C131.117 367.808 132.095 368.327 133.161 368.891C133.689 369.172 134.206 369.453 134.742 369.733C134.836 369.781 134.925 369.831 135.019 369.88C136.519 370.659 138.053 371.437 139.613 372.208C139.708 372.255 139.8 372.305 139.895 372.352C139.905 372.356 139.917 372.364 139.928 372.369C141.338 373.111 142.872 373.891 144.591 374.739C186.603 395.591 248.314 410.269 318.494 416.711C318.497 416.711 318.502 416.711 318.505 416.713C335.473 418.538 352.383 419.797 368.766 420.456C403.873 421.873 439.423 420.82 474.431 417.328C475.823 417.212 477.17 417.084 478.542 416.964C481.52 416.7 484.494 416.428 487.45 416.134C490.244 415.859 493.016 415.573 495.753 415.273C496.927 415.145 498.098 415.014 499.269 414.881C503.205 414.431 507.116 413.967 510.992 413.462C512.228 413.302 513.395 412.959 514.48 412.477C514.523 412.456 514.57 412.444 514.614 412.423C514.848 412.317 515.069 412.191 515.292 412.07C515.428 411.997 515.569 411.934 515.702 411.856C515.958 411.708 516.198 411.541 516.442 411.373C516.534 411.309 516.631 411.256 516.719 411.191C516.963 411.014 517.192 410.822 517.422 410.628C517.5 410.561 517.586 410.503 517.662 410.434C517.862 410.258 518.048 410.066 518.236 409.877C518.331 409.781 518.434 409.692 518.527 409.594C518.694 409.416 518.845 409.222 519.003 409.034C519.103 408.914 519.211 408.802 519.306 408.678C519.486 408.444 519.648 408.198 519.813 407.952C519.87 407.862 519.938 407.781 519.992 407.691C520.18 407.394 520.347 407.086 520.508 406.775C520.531 406.73 520.559 406.687 520.583 406.641C520.933 405.941 521.217 405.206 521.433 404.444C521.439 404.422 521.448 404.403 521.453 404.381C521.889 402.812 522.025 401.131 521.802 399.414C521.763 399.125 521.703 398.845 521.647 398.566C521.62 398.428 521.603 398.289 521.572 398.153C521.566 398.125 521.555 398.1 521.548 398.072C520.164 392.345 514.936 388.342 509.036 388.506C508.613 388.517 508.188 388.552 507.758 388.606C507.713 388.611 507.669 388.616 507.623 388.623C503.919 389.103 500.184 389.547 496.434 389.977C495.269 390.111 494.098 390.241 492.922 390.369C490.317 390.655 487.697 390.922 485.075 391.183C482.042 391.481 478.966 391.767 475.844 392.042C451.238 394.203 425.855 395.32 399.995 395.32C374.295 395.32 349.173 394.242 325.103 392.183C323.761 392.045 322.425 391.927 321.083 391.783C321.017 391.777 320.953 391.769 320.888 391.762C254.505 385.669 196.584 372.006 157.755 353.273L157.078 352.953C156.486 352.664 155.905 352.373 155.32 352.084C154.034 351.441 152.748 350.798 151.505 350.141C151.48 350.127 151.455 350.116 151.43 350.102C151.377 350.073 151.323 350.047 151.267 350.02C151.217 349.994 151.166 349.967 151.116 349.942C150.978 349.875 150.848 349.805 150.711 349.739C149.394 349.087 148.1 348.433 146.831 347.775C145.695 347.186 144.58 346.587 143.475 345.987C143.288 345.887 143.097 345.787 142.914 345.687C103.564 324.152 83.8672 296.366 89.9375 270.284C93.6782 254.214 106.47 244.267 116.18 244.267C122.888 244.267 129.455 245.456 135.702 247.805C139.15 249.102 142.998 248.812 146.217 247.016C149.436 245.217 151.7 242.095 152.408 238.478C157.483 212.514 180.398 193.669 206.895 193.669C213.477 193.669 219.913 194.806 226.022 197.048C229.597 198.359 233.572 197.977 236.825 196.006C240.081 194.036 242.266 190.694 242.763 186.92C246.378 159.436 270.039 138.711 297.797 138.711C309.967 138.711 321.523 142.578 331.216 149.895C334.205 152.15 338.044 152.952 341.691 152.08C345.333 151.206 348.394 148.747 350.033 145.378C359.42 126.087 378.567 114.105 399.998 114.105C421.43 114.105 440.577 126.089 449.963 145.378C451.602 148.747 454.663 151.205 458.305 152.08C461.95 152.952 465.792 152.153 468.781 149.894C478.472 142.578 490.028 138.709 502.198 138.709C529.958 138.709 553.616 159.436 557.233 186.919C557.73 190.691 559.914 194.034 563.169 196.005C566.425 197.975 570.4 198.356 573.973 197.047C580.083 194.805 586.52 193.667 593.1 193.667C619.597 193.667 642.514 212.512 647.588 238.477C648.294 242.094 650.558 245.217 653.777 247.014C656.995 248.812 660.844 249.1 664.292 247.803C670.539 245.456 677.108 244.266 683.816 244.266C693.523 244.266 706.317 254.212 710.058 270.284C716.539 298.119 693.667 327.897 648.88 349.945C648.775 349.997 648.672 350.05 648.569 350.105C641.114 354.036 632.739 357.783 623.578 361.322C623.155 361.486 622.739 361.653 622.314 361.814C601.298 369.823 576.159 376.728 548.098 382.139C541.303 383.448 536.856 390.02 538.167 396.816C539.405 403.241 545.356 407.552 551.736 406.902C552.177 406.866 552.62 406.806 553.064 406.722C584.078 400.773 611.745 393.012 635.303 383.648C640.802 381.694 645.825 379.761 650.656 377.742C664.945 371.769 678.792 362.527 687.986 356.08C688.005 356.069 688.134 355.978 688.153 355.966C688.183 355.945 688.325 355.847 688.353 355.825L688.62 355.639C688.792 355.519 689.045 355.339 689.352 355.116C691.417 353.652 693.411 352.166 695.344 350.659C695.547 350.5 695.758 350.341 695.956 350.183C698.472 348.255 701.659 345.756 704.784 343.153C726.516 385.494 762.797 462.169 772.761 519.764C772.822 520.109 772.897 520.456 772.984 520.795C774.28 525.748 774.936 530.728 774.931 535.65C774.922 535.908 774.911 536.164 774.908 536.422C774.905 536.592 774.906 536.762 774.911 536.931C774.919 537.278 774.913 537.583 774.888 537.834C774.87 538.019 774.858 538.203 774.848 538.387C773.036 575.498 733.552 612.633 666.525 640.269C595.144 669.698 500.5 685.906 400.022 685.906C299.847 685.906 205.405 669.784 134.088 640.508C67.1031 613.009 27.4188 576.013 25.2125 539.005C25.1938 538.697 25.1641 538.392 25.1235 538.086C25.0516 537.55 25.0344 537.042 25.0735 536.533C25.0969 536.22 25.1078 535.908 25.1078 535.594C25.1078 530.883 25.7172 526.073 26.9203 521.303C26.9985 520.987 27.0672 520.669 27.1219 520.345C29.4656 506.586 33.5485 490.694 39.261 473.109C41.3985 466.528 37.7953 459.459 31.2156 457.322C24.6313 455.183 17.5656 458.786 15.4281 465.367C9.40627 483.906 5.05783 500.825 2.50002 515.666C0.909397 522.134 0.0859591 528.689 0.0500216 535.159C-0.0624784 537.067 -0.00310339 538.998 0.223459 540.919C3.30315 588.439 47.4406 632.027 124.57 663.688C198.836 694.175 296.659 710.962 400.022 710.962C503.7 710.962 601.737 694.083 676.075 663.434C753.439 631.537 797.386 587.661 799.866 539.856C799.952 538.827 799.986 537.753 799.969 536.656C799.984 536.3 799.995 535.947 799.995 535.589C799.994 528.767 799.109 521.836 797.364 514.984Z" fill="white"/>
</g>
<defs>
<clipPath id="clip0_6_2">
<rect width="800" height="800" fill="white"/>
</clipPath>
</defs>
</svg>
