<svg width="512" height="512" viewBox="0 0 512 512" fill="none" xmlns="http://www.w3.org/2000/svg">
<g clip-path="url(#clip0_10_68)">
<path d="M490.612 311.993C461.999 283.515 415.44 283.514 386.81 312.009C384.716 314.104 382.753 316.334 380.93 318.686L341.399 279.154L328.943 291.609L384.449 347.115L390.086 336.779C392.58 332.205 395.669 328.062 399.253 324.478C421.015 302.817 456.426 302.817 478.157 324.45C499.818 346.212 499.818 381.621 478.171 403.369C465.391 416.15 447.03 421.947 429.045 418.881L416.792 416.791L418.881 429.044C421.948 447.026 416.148 465.391 403.383 478.156C381.62 499.817 346.212 499.817 324.479 478.185C302.819 456.423 302.819 421.014 324.465 399.266C328.062 395.669 332.206 392.58 336.78 390.084L347.115 384.447L291.61 328.942L279.154 341.396L318.688 380.93C316.331 382.755 314.097 384.722 311.996 386.824C283.516 415.438 283.516 461.996 312.024 490.638C326.329 504.876 345.119 511.997 363.912 511.997C382.709 511.997 401.509 504.873 415.825 490.624C429.979 476.47 437.627 457.132 437.291 437.288C457.093 437.606 476.475 429.973 490.641 415.808C519.121 387.195 519.121 340.636 490.612 311.993Z" fill="white"/>
<path d="M175.217 121.915L164.882 127.552L229.101 191.77L241.557 179.315L193.309 131.068C195.666 129.243 197.899 127.276 200.001 125.174C228.482 96.56 228.482 50.002 199.973 21.36C171.363 -7.122 124.803 -7.122 96.173 21.373C82.019 35.528 74.372 54.865 74.709 74.71C54.819 74.373 35.524 82.026 21.358 96.19C-7.12203 124.804 -7.12203 171.362 21.386 200.004C49.999 228.485 96.558 228.485 125.187 199.99C127.281 197.895 129.244 195.665 131.067 193.312L173.418 235.664L185.874 223.21L127.551 164.887L121.914 175.22C119.419 179.795 116.328 183.939 112.745 187.523C90.983 209.183 55.575 209.182 33.841 187.551C12.181 165.789 12.181 130.38 33.827 108.632C46.608 95.852 64.97 90.052 82.955 93.12L95.209 95.21L93.119 82.956C90.052 64.975 95.849 46.611 108.616 33.844C130.377 12.183 165.787 12.183 187.52 33.816C209.181 55.578 209.181 90.987 187.534 112.735C183.935 116.33 179.791 119.419 175.217 121.915Z" fill="white"/>
<path d="M67.057 125.189L42.1621 150.084L54.617 162.539L79.5118 137.644L67.057 125.189Z" fill="white"/>
<path d="M108.628 116.955L83.7339 141.849L96.1887 154.304L121.083 129.41L108.628 116.955Z" fill="white"/>
<path d="M457.353 349.459L432.459 374.353L444.914 386.808L469.808 361.914L457.353 349.459Z" fill="white"/>
<path d="M415.797 357.694L390.902 382.589L403.357 395.044L428.252 370.149L415.797 357.694Z" fill="white"/>
<path d="M490.625 96.177C476.469 82.022 457.126 74.378 437.289 74.711C437.625 54.866 429.974 35.526 415.808 21.361C387.194 -7.11898 340.635 -7.11898 311.994 21.389C283.514 50.003 283.514 96.561 312.008 125.189C314.103 127.284 316.334 129.247 318.686 131.069L199.982 249.772L131.067 318.687C129.241 316.331 127.275 314.096 125.172 311.995C96.558 283.515 49.999 283.515 21.358 312.023C-7.12101 340.637 -7.12101 387.195 21.372 415.823C35.527 429.977 54.835 437.61 74.709 437.289C74.372 457.133 82.022 476.473 96.189 490.639C110.493 504.876 129.279 511.997 148.071 511.997C166.873 511.997 185.679 504.869 200.004 490.611C228.485 461.997 228.485 415.439 199.99 386.811C197.894 384.716 195.664 382.754 193.312 380.931L380.931 193.312C382.756 195.668 384.723 197.902 386.825 200.004C415.439 228.485 461.998 228.485 490.639 199.976C519.12 171.363 519.12 124.805 490.625 96.177ZM478.185 187.521C456.423 209.182 421.012 209.181 399.267 187.535C395.669 183.937 392.581 179.794 390.086 175.22L384.449 164.884L164.884 384.449L175.219 390.086C179.794 392.581 183.937 395.67 187.521 399.254C209.182 421.016 209.182 456.424 187.549 478.158C165.787 499.819 130.376 499.818 108.631 478.172C95.849 465.391 90.051 447.026 93.119 429.046L95.209 416.792L82.955 418.882C64.972 421.948 46.608 416.149 33.842 403.384C12.182 381.622 12.182 346.213 33.814 324.48C55.577 302.819 90.988 302.82 112.732 324.466C116.329 328.063 119.42 332.207 121.915 336.783L127.552 347.116L347.116 127.552L336.781 121.915C332.206 119.42 328.063 116.331 324.479 112.747C302.819 90.985 302.819 55.576 324.451 33.843C346.214 12.182 381.625 12.183 403.369 33.829C416.15 46.61 421.95 64.975 418.883 82.957L416.794 95.21L429.047 93.12C447.029 90.055 465.392 95.853 478.159 108.618C499.817 130.379 499.817 165.789 478.185 187.521Z" fill="white"/>
<path d="M361.914 42.1484L349.459 54.6033L374.354 79.4974L386.809 67.0426L361.914 42.1484Z" fill="white"/>
<path d="M370.151 83.7434L357.696 96.1982L382.59 121.092L395.045 108.638L370.151 83.7434Z" fill="white"/>
<path d="M137.636 432.499L125.181 444.954L150.075 469.848L162.53 457.393L137.636 432.499Z" fill="white"/>
<path d="M129.41 390.907L116.956 403.362L141.85 428.256L154.305 415.801L129.41 390.907Z" fill="white"/>
</g>
<defs>
<clipPath id="clip0_10_68">
<rect width="511.998" height="511.998" fill="white"/>
</clipPath>
</defs>
</svg>
