<?xml version="1.0" encoding="utf-8"?>
<!-- Generator: Adobe Illustrator 26.3.1, SVG Export Plug-In . SVG Version: 6.00 Build 0)  -->
<svg version="1.1" id="Layer_1" xmlns="http://www.w3.org/2000/svg" xmlns:xlink="http://www.w3.org/1999/xlink" x="0px" y="0px"
	 viewBox="0 0 1080 1080" style="enable-background:new 0 0 1080 1080;" xml:space="preserve">
<style type="text/css">
	.st0{fill:#0F52A3;}
	.st1{fill:none;stroke:#FFFFFF;stroke-width:52;stroke-miterlimit:10;}
</style>
<circle class="st0" cx="540" cy="540" r="509.91"/>
<g>
	<path class="st1" d="M539.97,580.58c0,107.55-87.18,194.73-194.73,194.73s-215.75-121.79-148.5-262.58"/>
	<path class="st1" d="M540.03,580.58c0,107.55,87.18,194.73,194.73,194.73s215.75-121.79,148.5-262.58"/>
	<path class="st1" d="M544.93,440.76"/>
	<path class="st1" d="M544.93,593.11"/>
	<path class="st1" d="M631.97,492.77c0,28.72-42.33,81.96-93.11,81.96s-90.77-53.23-90.77-81.96c0-28.72,41.16-52.01,91.94-52.01
		C590.81,440.76,631.97,464.04,631.97,492.77z"/>
	<path class="st1" d="M261.69,400.95c0-53.16,43.1-96.26,96.26-96.26s96.26,43.1,96.26,96.26"/>
	<path class="st1" d="M624.65,400.95c0-53.16,43.1-96.26,96.26-96.26s96.26,43.1,96.26,96.26"/>
</g>
</svg>
