<svg width="1351" height="545" viewBox="0 0 1351 545" fill="none" xmlns="http://www.w3.org/2000/svg">
<path d="M421.01 400.072C419.277 401.279 415.667 402.273 411.668 401.67C407.668 401.066 403.282 398.866 401.477 394.18C399.672 389.494 400.45 382.326 403.635 376.47C406.82 370.614 412.412 366.07 420.408 363.622C428.403 361.174 438.809 360.819 447.726 361.067C456.642 361.316 464.074 362.167 469.522 364.616C474.971 367.065 478.439 371.111 480.562 376.222C482.685 381.332 483.464 387.508 483.287 391.944C483.111 396.381 481.978 399.078 479.111 400.463C476.244 401.848 471.646 401.919 467.683 401.599C463.719 401.28 460.394 400.57 459.97 399.327C459.546 398.084 462.022 396.31 463.366 394.5C464.71 392.69 464.922 390.844 463.933 389.815C462.943 388.787 460.748 388.574 458.518 389.248C456.288 389.922 454.025 391.483 452.75 393.933C451.476 396.382 451.193 399.717 451.617 402.628C452.042 405.539 453.174 408.023 454.803 409.159C456.431 410.295 458.554 410.082 460.712 409.372C462.87 408.662 465.065 407.455 467.294 406.816C469.522 406.178 471.788 406.107 471.753 407.667C471.718 409.227 469.382 412.423 465.984 416.293C462.586 420.162 458.129 424.703 454.095 427.437C450.061 430.17 446.452 431.093 443.373 431.341C440.294 431.59 437.747 431.164 434.349 429.567C430.951 427.969 426.706 425.202 422.531 421.333C418.355 417.464 414.25 412.495 413.154 409.691C412.058 406.887 413.969 406.248 416.656 406.638C419.344 407.029 422.814 408.449 425.539 409.159C428.264 409.869 430.246 409.869 431.661 408.733C433.075 407.597 433.925 405.324 433.96 402.628C433.996 399.932 433.217 396.807 431.802 394.288C430.387 391.768 428.334 389.851 426.247 388.999C424.16 388.147 422.037 388.36 421.399 389.71C420.762 391.059 421.61 393.542 422.106 395.494C422.601 397.446 422.743 398.865 421.01 400.072Z" fill="#0A0048"/>
<path d="M441.604 438.235C441.311 438.229 441.017 438.233 440.724 438.246C438.378 438.346 436.035 439.005 433.516 440.159C428.479 442.467 422.744 446.764 416.322 452.577C409.899 458.39 402.789 465.717 394.589 469.859C386.39 474.001 377.101 474.957 367.912 474.878C358.724 474.799 349.633 473.684 346.371 474.798C343.109 475.912 345.677 479.256 353.976 485.627C362.275 491.998 376.308 501.396 392.216 507.767C395.657 509.145 399.196 510.352 402.782 511.445C403.067 519.576 405.8 526.553 410.888 531.976C417.015 538.507 426.498 542.807 436.971 543.921C447.444 545.036 458.906 542.964 466.512 539.142C474.118 535.319 477.873 529.742 479.552 523.215C480.384 519.981 480.701 516.51 480.479 512.64C482.946 511.96 485.358 511.247 487.65 510.473C500.398 506.172 510.276 500.6 518.478 494.466C526.679 488.333 533.185 481.655 536.45 477.588C539.715 473.521 539.719 472.087 535.275 472.566C530.831 473.045 521.934 475.436 512.845 475.596C503.756 475.755 494.474 473.687 486.371 469.227C478.268 464.767 471.352 457.917 465.029 452.183C458.706 446.45 452.968 441.829 447.933 439.681C445.731 438.741 443.66 438.271 441.604 438.235ZM450.821 467.577C452.369 467.611 454.904 467.682 459.248 473.473C463.591 479.263 468.846 491.3 471.477 500.616C474.109 509.932 474.364 516.559 472.936 522.108C471.509 527.659 468.888 531.532 462.939 534.522C456.989 537.512 446.618 539.456 437.856 538.523C429.093 537.591 421.243 533.983 416.278 528.692C411.315 523.4 408.821 516.078 409.626 506.711C410.431 497.344 414.823 485.714 419.227 478.47C423.632 471.226 427.809 468.685 430.022 468.15C431.949 467.685 434.466 468.457 438.95 468.755C435.366 481.727 426.856 518.621 442.865 528.515C436.634 513.508 443.161 480.524 445.891 468.435C446.654 468.293 447.349 468.143 447.896 468.02C449.385 467.685 450.05 467.561 450.821 467.577Z" fill="#0A0048"/>
<path d="M347.334 210.001C327.874 210 308.533 218.141 294.772 232.124C281.011 246.108 273.001 265.764 273 285.541C272.999 305.318 281.011 324.968 294.772 338.952C308.533 352.937 327.873 361.081 347.334 361.08C355.324 361.08 363.287 359.685 370.859 357.099C368.855 357.304 366.842 357.417 364.827 357.437C356.256 357.437 347.769 355.749 339.851 352.47C331.933 349.19 324.738 344.383 318.678 338.322C312.618 332.262 307.81 325.067 304.531 317.149C301.251 309.231 299.563 300.744 299.563 292.174C299.564 283.603 301.252 275.117 304.532 267.2C307.812 259.282 312.619 252.088 318.679 246.028C324.74 239.968 331.934 235.161 339.852 231.882C347.77 228.602 356.256 226.915 364.827 226.915C381.766 226.94 398.032 233.551 410.186 245.351C407.25 240.571 403.814 236.115 399.892 232.129C386.132 218.146 366.794 210.001 347.334 210.001ZM364.827 238.789C359.86 238.789 354.906 239.526 350.137 240.906C356.252 242.593 361.645 246.238 365.49 251.282C369.336 256.327 371.422 262.492 371.429 268.836C371.429 276.528 368.374 283.905 362.935 289.345C357.496 294.784 350.119 297.84 342.427 297.841C335.881 297.834 329.53 295.612 324.407 291.537C319.284 287.462 315.689 281.774 314.209 275.397C312.407 280.8 311.437 286.477 311.437 292.174C311.437 306.151 317.191 320.042 327.075 329.926C336.958 339.809 350.85 345.564 364.827 345.563C378.803 345.563 392.692 339.809 402.574 329.926C411.074 321.425 416.507 309.959 417.865 298.024C415.805 299.273 413.444 299.936 411.036 299.941C409.299 299.942 407.579 299.6 405.975 298.936C404.37 298.271 402.912 297.298 401.684 296.07C400.456 294.842 399.482 293.384 398.817 291.78C398.152 290.176 397.81 288.456 397.81 286.72C397.809 284.983 398.151 283.262 398.816 281.658C399.48 280.053 400.454 278.594 401.682 277.366C402.911 276.138 404.369 275.164 405.974 274.499C407.579 273.835 409.299 273.493 411.036 273.493C412.382 273.495 413.72 273.702 415.004 274.107C412.344 266.75 408.107 259.959 402.574 254.426C392.692 244.544 378.802 238.789 364.827 238.789Z" fill="#0A0048"/>
<path d="M526.04 210C506.58 210.001 487.242 218.145 473.482 232.128C469.559 236.114 466.124 240.571 463.188 245.35C475.342 233.551 491.608 226.94 508.547 226.914C517.117 226.914 525.604 228.602 533.521 231.881C541.439 235.16 548.634 239.967 554.694 246.027C560.754 252.087 565.562 259.281 568.842 267.199C572.122 275.116 573.81 283.603 573.81 292.173C573.81 300.743 572.123 309.23 568.843 317.148C565.563 325.067 560.756 332.261 554.696 338.322C548.635 344.382 541.441 349.189 533.523 352.469C525.604 355.748 517.118 357.436 508.547 357.436C506.532 357.416 504.519 357.304 502.515 357.098C510.087 359.684 518.049 361.079 526.04 361.079C545.501 361.08 564.84 352.936 578.602 338.951C592.363 324.967 600.374 305.317 600.374 285.54C600.373 265.764 592.362 246.107 578.602 232.124C564.841 218.14 545.5 209.999 526.04 210ZM506.389 238.788C501.423 238.788 496.469 239.525 491.7 240.905C497.814 242.592 503.207 246.237 507.053 251.281C510.899 256.326 512.985 262.492 512.991 268.835C512.992 276.527 509.936 283.904 504.498 289.344C499.059 294.783 491.682 297.84 483.99 297.841C477.444 297.833 471.093 295.611 465.97 291.536C460.846 287.461 457.252 281.773 455.772 275.397C453.97 280.799 453 286.476 453 292.173C452.999 306.15 458.754 320.042 468.637 329.925C478.521 339.808 492.412 345.563 506.389 345.562C520.366 345.562 534.254 339.808 544.137 329.925C552.637 321.424 558.07 309.958 559.427 298.023C557.368 299.272 555.007 299.935 552.599 299.94C550.862 299.941 549.142 299.599 547.538 298.935C545.933 298.271 544.475 297.297 543.247 296.069C542.019 294.841 541.044 293.384 540.38 291.779C539.715 290.175 539.373 288.455 539.372 286.719C539.372 284.982 539.714 283.262 540.378 281.657C541.043 280.052 542.017 278.594 543.245 277.365C544.474 276.137 545.932 275.163 547.537 274.498C549.141 273.834 550.862 273.492 552.599 273.493C553.945 273.494 555.283 273.701 556.567 274.106C553.907 266.749 549.67 259.958 544.137 254.425C534.255 244.543 520.365 238.788 506.389 238.788Z" fill="#0A0048"/>
<path d="M59 355.475C48.1833 355.475 39.1367 350.952 31.86 341.905C24.5833 332.858 20.945 320.468 20.945 304.735C20.945 296.672 21.83 287.625 23.6 277.595C25.37 267.368 27.435 257.043 29.795 246.62C32.155 236.197 34.22 226.462 35.99 217.415C37.76 208.172 38.645 200.502 38.645 194.405C38.645 190.078 38.055 186.735 36.875 184.375C35.695 181.818 33.5317 180.54 30.385 180.54C28.025 180.54 25.2717 181.622 22.125 183.785C18.9783 185.948 16.6183 190.177 15.045 196.47L12.095 195.29C12.095 178.377 15.93 165.003 23.6 155.17C31.4667 145.337 41.9883 140.42 55.165 140.42C67.555 140.42 76.11 144.452 80.83 152.515C85.7467 160.578 88.205 170.707 88.205 182.9C88.205 191.947 87.2217 201.583 85.255 211.81C83.485 222.037 81.42 232.263 79.06 242.49C76.7 252.52 74.5367 261.862 72.57 270.515C70.8 279.168 69.915 286.347 69.915 292.05C69.915 300.507 72.0783 304.735 76.405 304.735C78.9617 304.735 82.4033 302.965 86.73 299.425C91.0567 295.688 95.58 290.673 100.3 284.38C105.217 277.89 109.937 270.613 114.46 262.55C118.983 254.29 122.818 245.637 125.965 236.59C125.572 232.263 125.277 228.133 125.08 224.2C124.883 220.07 124.785 216.432 124.785 213.285C124.785 197.552 126.26 184.867 129.21 175.23C132.357 165.593 136.29 158.513 141.01 153.99C145.73 149.467 150.548 147.205 155.465 147.205C162.348 147.205 168.543 151.04 174.05 158.71C179.557 166.183 182.31 176.41 182.31 189.39C182.31 197.453 180.835 206.5 177.885 216.53C174.935 226.363 170.018 236.885 163.135 248.095C162.545 265.008 164.413 278.677 168.74 289.1C173.067 299.523 178.475 304.735 184.965 304.735C189.095 304.735 193.52 302.67 198.24 298.54C203.157 294.213 207.68 288.313 211.81 280.84C215.94 273.17 219.283 264.32 221.84 254.29C224.593 244.26 225.97 233.542 225.97 222.135C225.97 215.448 225.478 208.467 224.495 201.19C223.708 193.913 222.627 186.932 221.25 180.245C220.07 173.558 218.792 168.052 217.415 163.725C217.415 160.382 218.792 157.038 221.545 153.695C224.495 150.155 228.232 147.205 232.755 144.845C237.278 142.288 241.9 141.01 246.62 141.01C251.34 141.01 255.863 142.682 260.19 146.025C264.517 149.368 268.057 155.268 270.81 163.725C273.563 171.985 274.94 183.785 274.94 199.125C274.94 220.562 272.187 240.72 266.68 259.6C261.173 278.283 253.7 294.803 244.26 309.16C235.017 323.517 224.79 334.825 213.58 343.085C202.37 351.148 190.963 355.18 179.36 355.18C169.133 355.18 160.677 352.033 153.99 345.74C147.303 339.447 142.092 330.99 138.355 320.37C134.618 309.75 131.963 297.95 130.39 284.97C123.31 301.883 115.64 315.552 107.38 325.975C99.12 336.202 90.86 343.675 82.6 348.395C74.34 353.115 66.4733 355.475 59 355.475ZM633.57 413.885C627.867 413.885 622.458 412.803 617.345 410.64C612.232 408.673 608.692 405.625 606.725 401.495C611.445 381.435 615.28 363.637 618.23 348.1C621.377 332.563 623.835 318.698 625.605 306.505C627.375 294.312 628.653 283.2 629.44 273.17C630.227 262.943 630.718 253.11 630.915 243.67C624.228 244.063 617.837 244.752 611.74 245.735C605.643 246.522 600.333 247.702 595.81 249.275L595.22 247.21C600.923 241.507 606.823 236.787 612.92 233.05C619.017 229.117 625.113 225.97 631.21 223.61V201.19C631.21 186.047 634.258 173.755 640.355 164.315C646.452 154.678 654.22 147.598 663.66 143.075C673.297 138.355 683.228 135.995 693.455 135.995C707.025 135.995 717.153 139.24 723.84 145.73C730.723 152.22 734.165 159.497 734.165 167.56C734.165 173.46 732.297 179.163 728.56 184.67C725.02 190.177 719.612 194.798 712.335 198.535C705.058 202.075 695.913 203.845 684.9 203.845C688.047 198.142 690.407 192.438 691.98 186.735C693.75 181.032 694.635 176.017 694.635 171.69C694.635 168.347 694.143 165.692 693.16 163.725C692.177 161.562 690.8 160.48 689.03 160.48C685.293 160.48 681.655 165.2 678.115 174.64C674.772 183.883 673.1 196.077 673.1 211.22V216.825C678.803 216.628 684.212 216.727 689.325 217.12C694.635 217.513 699.552 217.907 704.075 218.3C704.468 219.677 704.763 221.152 704.96 222.725C705.157 224.298 705.255 225.872 705.255 227.445C705.255 230.395 704.862 233.345 704.075 236.295C703.288 239.245 702.207 242.293 700.83 245.44C697.29 245.047 693.258 244.653 688.735 244.26C684.212 243.867 679.393 243.572 674.28 243.375V249.865C674.28 260.682 673.788 273.17 672.805 287.33C672.018 301.49 670.445 318.305 668.085 337.775C665.725 357.245 662.087 380.452 657.17 407.395C651.073 411.722 643.207 413.885 633.57 413.885ZM772.612 356.065C758.255 356.065 746.357 353.213 736.917 347.51C727.477 341.61 720.397 333.94 715.677 324.5C710.957 314.863 708.597 304.538 708.597 293.525C708.597 283.102 710.564 272.678 714.497 262.255C718.627 251.635 724.527 241.998 732.197 233.345C740.064 224.692 749.504 217.71 760.517 212.4C771.727 207.09 784.314 204.435 798.277 204.435C815.584 204.435 828.17 208.368 836.037 216.235C844.1 223.905 848.132 233.247 848.132 244.26C848.132 253.7 845.575 262.452 840.462 270.515C835.545 278.382 828.957 284.773 820.697 289.69C812.437 294.41 803.39 296.77 793.557 296.77C788.444 296.77 783.232 295.983 777.922 294.41C772.612 292.837 767.4 290.378 762.287 287.035C763.27 299.228 766.81 308.078 772.907 313.585C779.004 319.092 786.28 321.845 794.737 321.845C800.637 321.845 806.537 320.763 812.437 318.6C818.337 316.24 823.745 313.29 828.662 309.75C833.775 306.013 837.709 302.08 840.462 297.95L842.527 299.425C842.527 309.652 840.364 318.403 836.037 325.68C831.907 332.76 826.4 338.562 819.517 343.085C812.634 347.608 805.062 350.952 796.802 353.115C788.739 355.082 780.675 356.065 772.612 356.065ZM779.397 276.415C785.69 276.415 790.804 274.645 794.737 271.105C798.67 267.368 801.62 263.042 803.587 258.125C805.554 253.208 806.537 248.882 806.537 245.145C806.537 240.622 805.259 236.885 802.702 233.935C800.145 230.788 796.605 229.215 792.082 229.215C788.542 229.215 784.609 230.493 780.282 233.05C776.152 235.607 772.415 240.032 769.072 246.325C765.729 252.422 763.565 260.977 762.582 271.99C768.875 274.94 774.48 276.415 779.397 276.415ZM897.54 355.18C890.46 355.18 884.166 352.328 878.66 346.625C873.153 340.725 870.4 332.465 870.4 321.845C870.4 316.732 870.99 310.93 872.17 304.44C873.35 297.95 874.726 291.362 876.3 284.675C877.873 277.792 879.25 271.4 880.43 265.5C881.61 259.403 882.2 254.388 882.2 250.455C882.2 246.325 881.413 243.08 879.84 240.72C878.463 238.163 876.595 236.885 874.235 236.885C870.498 236.885 866.663 239.442 862.73 244.555L860.96 243.375C860.763 240.228 861.451 236.492 863.025 232.165C864.598 227.838 867.056 223.708 870.4 219.775C873.743 215.645 877.971 212.203 883.085 209.45C888.395 206.697 894.59 205.32 901.67 205.32C912.093 205.32 919.665 208.368 924.385 214.465C929.105 220.365 931.465 227.543 931.465 236C931.465 237.377 931.366 238.852 931.17 240.425C931.17 241.802 931.071 243.178 930.875 244.555C937.955 231.772 945.33 222.037 953 215.35C960.866 208.467 968.143 205.025 974.83 205.025C981.123 205.025 985.745 207.483 988.695 212.4C991.645 217.317 993.12 223.217 993.12 230.1C993.12 236.393 991.841 242.785 989.285 249.275C986.925 255.765 983.286 261.173 978.37 265.5C973.65 269.63 967.848 271.597 960.965 271.4L959.785 270.81C959.588 265.697 957.916 261.665 954.77 258.715C951.623 255.765 948.083 254.29 944.15 254.29C938.84 254.29 933.825 256.945 929.105 262.255C924.581 267.565 922.32 275.235 922.32 285.265C922.32 291.362 923.008 297.95 924.385 305.03C925.761 312.11 926.45 318.108 926.45 323.025C926.45 328.925 925.073 334.333 922.32 339.25C919.566 344.167 916.026 348.1 911.7 351.05C907.373 353.803 902.653 355.18 897.54 355.18ZM1033.45 356.065C1025.78 355.672 1019.09 353.017 1013.39 348.1C1007.88 342.987 1004.05 334.137 1001.88 321.55C1011.32 318.6 1020.66 313.093 1029.91 305.03C1039.35 296.77 1048.59 287.33 1057.64 276.71C1066.88 265.893 1075.93 255.372 1084.78 245.145C1081.63 243.178 1078.58 241.802 1075.63 241.015C1072.68 240.228 1069.93 239.835 1067.37 239.835C1062.06 239.835 1057.74 241.31 1054.39 244.26C1051.25 247.013 1049.67 250.75 1049.67 255.47C1049.67 259.797 1051.25 264.713 1054.39 270.22C1052.03 270.613 1049.77 270.908 1047.61 271.105C1045.44 271.302 1043.48 271.4 1041.71 271.4C1029.32 271.4 1020.17 268.155 1014.27 261.665C1008.37 255.175 1005.42 247.997 1005.42 240.13C1005.42 234.427 1006.8 228.92 1009.55 223.61C1012.5 218.103 1016.83 213.678 1022.53 210.335C1028.24 206.795 1035.12 205.025 1043.18 205.025C1050.66 205.025 1059.01 206.893 1068.26 210.63C1077.7 214.17 1088.02 220.267 1099.23 228.92C1104.94 222.823 1110.44 217.415 1115.75 212.695C1121.26 207.975 1126.77 204.337 1132.27 201.78C1143.09 203.55 1150.76 207.385 1155.28 213.285C1160 218.988 1162.36 225.085 1162.36 231.575C1162.36 232.755 1162.26 233.837 1162.07 234.82C1162.07 235.803 1161.97 236.787 1161.77 237.77C1149.78 242.687 1139.45 249.275 1130.8 257.535C1122.34 265.598 1114.47 274.547 1107.2 284.38C1099.92 294.017 1091.96 303.85 1083.3 313.88C1086.84 316.83 1090.28 318.993 1093.63 320.37C1096.97 321.55 1100.02 322.14 1102.77 322.14C1108.08 322.14 1112.41 320.37 1115.75 316.83C1119.1 313.093 1120.77 308.767 1120.77 303.85C1120.77 302.277 1120.57 300.703 1120.18 299.13C1119.98 297.557 1119.39 295.983 1118.41 294.41C1120.77 294.017 1123.03 293.722 1125.19 293.525C1127.55 293.132 1129.81 292.935 1131.98 292.935C1142.99 292.935 1151.05 295.787 1156.17 301.49C1161.28 306.997 1163.84 313.388 1163.84 320.665C1163.84 326.172 1162.36 331.678 1159.41 337.185C1156.46 342.692 1152.14 347.215 1146.43 350.755C1140.73 354.295 1133.85 356.065 1125.78 356.065C1118.31 356.065 1109.75 354 1100.12 349.87C1090.68 345.74 1080.35 338.857 1069.14 329.22C1064.23 334.137 1058.82 338.857 1052.92 343.38C1047.02 347.903 1040.53 352.132 1033.45 356.065ZM1212.06 356.065C1204.39 355.672 1197.7 353.017 1192 348.1C1186.49 342.987 1182.66 334.137 1180.5 321.55C1189.94 318.6 1199.28 313.093 1208.52 305.03C1217.96 296.77 1227.2 287.33 1236.25 276.71C1245.49 265.893 1254.54 255.372 1263.39 245.145C1260.24 243.178 1257.2 241.802 1254.25 241.015C1251.3 240.228 1248.54 239.835 1245.99 239.835C1240.68 239.835 1236.35 241.31 1233.01 244.26C1229.86 247.013 1228.29 250.75 1228.29 255.47C1228.29 259.797 1229.86 264.713 1233.01 270.22C1230.65 270.613 1228.38 270.908 1226.22 271.105C1224.06 271.302 1222.09 271.4 1220.32 271.4C1207.93 271.4 1198.79 268.155 1192.89 261.665C1186.99 255.175 1184.04 247.997 1184.04 240.13C1184.04 234.427 1185.41 228.92 1188.17 223.61C1191.12 218.103 1195.44 213.678 1201.15 210.335C1206.85 206.795 1213.73 205.025 1221.8 205.025C1229.27 205.025 1237.63 206.893 1246.87 210.63C1256.31 214.17 1266.64 220.267 1277.85 228.92C1283.55 222.823 1289.06 217.415 1294.37 212.695C1299.87 207.975 1305.38 204.337 1310.89 201.78C1321.7 203.55 1329.37 207.385 1333.9 213.285C1338.62 218.988 1340.98 225.085 1340.98 231.575C1340.98 232.755 1340.88 233.837 1340.68 234.82C1340.68 235.803 1340.58 236.787 1340.39 237.77C1328.39 242.687 1318.06 249.275 1309.41 257.535C1300.95 265.598 1293.09 274.547 1285.81 284.38C1278.53 294.017 1270.57 303.85 1261.92 313.88C1265.46 316.83 1268.9 318.993 1272.24 320.37C1275.58 321.55 1278.63 322.14 1281.39 322.14C1286.7 322.14 1291.02 320.37 1294.37 316.83C1297.71 313.093 1299.38 308.767 1299.38 303.85C1299.38 302.277 1299.18 300.703 1298.79 299.13C1298.59 297.557 1298 295.983 1297.02 294.41C1299.38 294.017 1301.64 293.722 1303.81 293.525C1306.17 293.132 1308.43 292.935 1310.59 292.935C1321.6 292.935 1329.67 295.787 1334.78 301.49C1339.89 306.997 1342.45 313.388 1342.45 320.665C1342.45 326.172 1340.98 331.678 1338.03 337.185C1335.08 342.692 1330.75 347.215 1325.05 350.755C1319.34 354.295 1312.46 356.065 1304.4 356.065C1296.92 356.065 1288.37 354 1278.73 349.87C1269.29 345.74 1258.97 338.857 1247.76 329.22C1242.84 334.137 1237.43 338.857 1231.53 343.38C1225.63 347.903 1219.14 352.132 1212.06 356.065Z" fill="#F5DEB3"/>
</svg>
